<?xml version="1.0" standalone="no"?>
<!DOCTYPE svg PUBLIC "-//W3C//DTD SVG 1.1//EN" "http://www.w3.org/Graphics/SVG/1.1/DTD/svg11.dtd">
<svg width="100%" height="100%" viewBox="0 0 399 456" version="1.1" xmlns="http://www.w3.org/2000/svg" xmlns:xlink="http://www.w3.org/1999/xlink" xml:space="preserve" style="fill-rule:evenodd;clip-rule:evenodd;stroke-linejoin:round;stroke-miterlimit:1.41421;">
    <g transform="matrix(1,0,0,1,-51.9903,-94.902)">
        <g transform="matrix(1,0,0,1,-126.35,-264.859)">
            <g transform="matrix(1.02199,0,0,0.956578,-4.0782,13.5517)">
                <clipPath id="_clip1">
                    <path d="M505.887,361.925C537.1,361.925 562.44,388.999 562.44,422.346L562.44,856.272C562.44,889.619 537.099,916.693 505.887,916.693L241.971,916.693C210.759,916.693 185.418,889.619 185.418,856.272L185.418,422.346C185.418,388.999 210.758,361.925 241.971,361.925L505.887,361.925ZM533.937,469.68L212.492,469.68L212.492,837.604L533.937,837.604L533.937,469.68Z"/>
                </clipPath>
                <g clip-path="url(#_clip1)">
                    <rect x="185.418" y="361.925" width="377.022" height="475.756" style="fill:#444444;"/>
                </g>
            </g>
            <g transform="matrix(1.26267,0,0,1,-52.1382,0)">
                <path d="M198.495,468.999C198.495,466.218 196.707,463.961 194.504,463.961L186.523,463.961C184.321,463.961 182.533,466.218 182.533,468.999L182.533,491.622C182.533,494.403 184.321,496.66 186.523,496.66L194.504,496.66C196.707,496.66 198.495,494.403 198.495,491.622L198.495,468.999Z" style="fill:#444444;"/>
            </g>
            <defs>
              <pattern id="img1" patternUnits="userSpaceOnUse" width="100" height="100">
                <image xlink:href="img/ss2.png" x="0" y="0" width="100" height="100" />
              </pattern>
            </defs>
            <path d="M5,50
              l0,100 l100,0 l0,-100 l-100,0
              M215,100
              a50,50 0 1 1 -100,0 50,50 0 1 1 100,0
              M265,50
              l50,100 l-100,0 l50,-100
              z"
              fill="url(#img1)" />
            <g>
                <rect class="svg-background" x="185.418" y="361.925" width="377.022" height="475.756"/>
            </g>
            <g transform="matrix(1.26267,0,0,1.85081,-52.1382,-324.726)">
                <path d="M198.495,466.683C198.495,465.181 196.707,463.961 194.504,463.961L186.523,463.961C184.321,463.961 182.533,465.181 182.533,466.683L182.533,493.938C182.533,495.441 184.321,496.66 186.523,496.66L194.504,496.66C196.707,496.66 198.495,495.441 198.495,493.938L198.495,466.683Z" style="fill:#444444;"/>
            </g>
            <g transform="matrix(1.26267,0,0,1.85081,325.717,-324.726)">
                <path d="M198.495,466.683C198.495,465.181 196.707,463.961 194.504,463.961L186.523,463.961C184.321,463.961 182.533,465.181 182.533,466.683L182.533,493.938C182.533,495.441 184.321,496.66 186.523,496.66L194.504,496.66C196.707,496.66 198.495,495.441 198.495,493.938L198.495,466.683Z" style="fill:#444444;"/>
            </g>
            <g transform="matrix(1.26267,0,0,1.85081,-52.1382,-248.689)">
                <path d="M198.495,466.683C198.495,465.181 196.707,463.961 194.504,463.961L186.523,463.961C184.321,463.961 182.533,465.181 182.533,466.683L182.533,493.938C182.533,495.441 184.321,496.66 186.523,496.66L194.504,496.66C196.707,496.66 198.495,495.441 198.495,493.938L198.495,466.683Z" style="fill:#444444;"/>
            </g>
        </g>
    </g>
</svg>
