<?xml version="1.0" standalone="no"?>
<!DOCTYPE svg PUBLIC "-//W3C//DTD SVG 1.1//EN" "http://www.w3.org/Graphics/SVG/1.1/DTD/svg11.dtd">
<svg width="100%" height="100%" viewBox="0 0 430 92" version="1.1" xmlns="http://www.w3.org/2000/svg" xmlns:xlink="http://www.w3.org/1999/xlink" xml:space="preserve" style="fill-rule:evenodd;clip-rule:evenodd;stroke-linejoin:round;stroke-miterlimit:1.41421;">
    <g transform="matrix(1,0,0,1,-45.473,-108.581)">
        <g transform="matrix(1.25183,0,0,1.28605,-188.867,-1389.29)">
            <path d="M529.938,1200.24C529.938,1180.63 513.576,1164.7 493.424,1164.7L223.712,1164.7C203.559,1164.7 187.198,1180.63 187.198,1200.24C187.198,1219.86 203.559,1235.79 223.712,1235.79L493.424,1235.79C513.576,1235.79 529.938,1219.86 529.938,1200.24Z" style="fill:rgb(233,161,53);"/>
        </g>
        <g transform="matrix(0.807373,0,0,0.807373,-138.075,-815.23)">
            <g transform="matrix(0.84,0,0,0.8,43.9925,242.748)">
                <path d="M325.87,1175.75C326.091,1174.87 326.456,1174.22 326.964,1173.8C327.472,1173.38 328.036,1173.17 328.655,1173.17C329.318,1173.17 329.914,1173.42 330.445,1173.93C330.975,1174.44 331.24,1175.18 331.24,1176.15L331.24,1176.41C330.71,1179.73 329.903,1183.07 328.82,1186.43C327.738,1189.79 326.599,1193.01 325.406,1196.11C324.345,1198.93 323.251,1201.96 322.124,1205.19C320.997,1208.41 319.749,1211.38 318.378,1214.07C317.671,1214.91 316.898,1215.33 316.058,1215.33C314.953,1215.33 314.091,1214.71 313.472,1213.48C312.5,1210.96 311.605,1208.61 310.787,1206.45C309.97,1204.28 309.196,1202.18 308.467,1200.15C307.738,1198.12 307.008,1196.11 306.279,1194.12C305.55,1192.13 304.765,1190.09 303.925,1188.02C303.395,1189.7 302.831,1191.35 302.235,1192.99C301.638,1194.62 301.03,1196.26 300.412,1197.89C299.439,1200.5 298.434,1203.22 297.395,1206.05C296.356,1208.88 295.196,1211.53 293.914,1214.01C293.207,1214.85 292.434,1215.27 291.594,1215.27C290.489,1215.27 289.627,1214.65 289.008,1213.41C287.992,1209.34 286.809,1205.35 285.461,1201.44C284.113,1197.53 282.688,1193.63 281.185,1189.74C280.434,1187.75 279.671,1185.66 278.898,1183.48C278.124,1181.29 277.251,1179.24 276.279,1177.34C276.014,1176.72 275.881,1176.17 275.881,1175.68C275.881,1174.93 276.124,1174.32 276.61,1173.83C277.097,1173.34 277.693,1173.1 278.4,1173.1C278.842,1173.1 279.284,1173.21 279.726,1173.43C280.168,1173.65 280.566,1174.03 280.92,1174.56C281.936,1176.59 282.876,1178.77 283.738,1181.09C284.599,1183.41 285.428,1185.63 286.224,1187.75C287.373,1190.76 288.434,1193.62 289.406,1196.34C290.378,1199.06 291.284,1201.85 292.124,1204.72C292.699,1203.31 293.229,1201.91 293.715,1200.51C294.202,1199.12 294.71,1197.74 295.24,1196.37C296.345,1193.45 297.406,1190.4 298.423,1187.22C299.439,1184.04 300.301,1180.92 301.008,1177.87C301.671,1176.77 302.511,1176.22 303.528,1176.22C304.5,1176.22 305.318,1176.7 305.981,1177.67C306.997,1180.33 307.936,1182.83 308.798,1185.2C309.66,1187.56 310.5,1189.88 311.318,1192.16C312.135,1194.44 312.942,1196.68 313.738,1198.89C314.533,1201.1 315.395,1203.35 316.323,1205.65C317.03,1204.02 317.704,1202.17 318.345,1200.12C318.986,1198.06 319.616,1196.22 320.235,1194.58C321.384,1191.62 322.478,1188.54 323.517,1185.33C324.555,1182.13 325.34,1178.93 325.87,1175.75Z" style="fill:white;fill-opacity:0.704373;fill-rule:nonzero;"/>
            </g>
            <g transform="matrix(0.84,0,0,0.8,43.9925,242.748)">
                <path d="M343.97,1211.68C343.925,1212.66 343.638,1213.4 343.108,1213.91C342.577,1214.41 341.992,1214.68 341.351,1214.7C340.71,1214.72 340.113,1214.5 339.561,1214.04C339.008,1213.58 338.666,1212.86 338.533,1211.88L338.533,1175.02C338.71,1174.18 339.052,1173.54 339.561,1173.1C340.069,1172.66 340.599,1172.43 341.152,1172.4C341.704,1172.38 342.246,1172.57 342.776,1172.97C343.307,1173.37 343.704,1173.98 343.97,1174.82L343.97,1190.4C344.633,1189.74 345.251,1189.21 345.826,1188.81C346.71,1188.19 347.539,1187.7 348.312,1187.32C349.086,1186.94 349.981,1186.65 350.997,1186.43C351.793,1186.2 352.599,1186.16 353.417,1186.29C354.235,1186.43 355.041,1186.6 355.837,1186.82C357.163,1187.22 358.301,1187.86 359.251,1188.75C360.202,1189.63 360.997,1190.66 361.638,1191.83C362.279,1193 362.754,1194.25 363.063,1195.58C363.373,1196.9 363.55,1198.18 363.594,1199.42C363.638,1201.54 363.649,1203.63 363.627,1205.68C363.605,1207.74 363.616,1209.83 363.66,1211.95C363.616,1212.92 363.329,1213.66 362.798,1214.17C362.268,1214.68 361.682,1214.94 361.041,1214.97C360.4,1214.99 359.804,1214.77 359.251,1214.3C358.699,1213.84 358.356,1213.12 358.224,1212.15C358.224,1210.03 358.224,1207.94 358.224,1205.88C358.224,1203.83 358.202,1201.74 358.157,1199.62C358.113,1198.03 357.815,1196.59 357.262,1195.31C356.71,1194.03 355.749,1192.94 354.378,1192.06C353.229,1191.75 352.191,1191.75 351.262,1192.06C350.334,1192.37 349.483,1192.85 348.71,1193.49C347.936,1194.13 347.218,1194.87 346.555,1195.71C345.892,1196.55 345.251,1197.37 344.633,1198.16C344.544,1198.29 344.434,1198.41 344.301,1198.53C344.168,1198.64 344.058,1198.74 343.97,1198.82L343.97,1211.68Z" style="fill:white;fill-opacity:0.704373;fill-rule:nonzero;"/>
            </g>
            <g transform="matrix(0.84,0,0,0.8,43.9925,242.748)">
                <path d="M369.561,1197.5C370.047,1196.08 370.644,1194.7 371.351,1193.35C372.058,1192.01 372.898,1190.78 373.87,1189.67C374.842,1188.57 375.959,1187.62 377.218,1186.82C378.478,1186.03 379.881,1185.45 381.428,1185.1C383.992,1184.53 386.235,1184.72 388.157,1185.7C390.08,1186.67 391.616,1188.06 392.765,1189.87C393.914,1191.68 394.677,1193.75 395.052,1196.07C395.428,1198.39 395.329,1200.61 394.754,1202.74C394.091,1205.34 392.92,1207.77 391.24,1210.03C389.561,1212.28 387.439,1213.92 384.876,1214.93C382.975,1215.68 381.152,1215.96 379.406,1215.76C377.66,1215.56 376.091,1215 374.699,1214.07C373.307,1213.14 372.124,1211.93 371.152,1210.43C370.18,1208.92 369.517,1207.22 369.163,1205.32C368.942,1204.13 368.865,1202.96 368.931,1201.81C368.997,1200.66 369.141,1199.51 369.362,1198.36L369.561,1197.5ZM374.732,1199.02C374.555,1199.95 374.434,1200.8 374.367,1201.58C374.301,1202.35 374.334,1203.22 374.467,1204.19C374.599,1205.39 374.975,1206.46 375.594,1207.41C376.213,1208.36 376.964,1209.09 377.848,1209.6C378.732,1210.11 379.715,1210.35 380.798,1210.33C381.881,1210.3 382.975,1209.96 384.08,1209.3C385.539,1208.41 386.699,1207.27 387.561,1205.85C388.423,1204.44 389.075,1202.91 389.517,1201.28C389.87,1199.95 389.947,1198.54 389.749,1197.03C389.55,1195.53 389.097,1194.2 388.389,1193.06C387.682,1191.91 386.732,1191.08 385.539,1190.57C384.345,1190.06 382.931,1190.14 381.296,1190.8C379.528,1191.55 378.135,1192.68 377.119,1194.18C376.102,1195.68 375.307,1197.3 374.732,1199.02Z" style="fill:white;fill-opacity:0.704373;fill-rule:nonzero;"/>
            </g>
            <g transform="matrix(0.84,0,0,0.8,43.9925,242.748)">
                <path d="M398.865,1171.24C399.086,1170.36 399.439,1169.7 399.925,1169.25C400.412,1168.81 400.964,1168.59 401.583,1168.59C402.157,1168.59 402.699,1168.79 403.207,1169.19C403.715,1169.59 404.08,1170.2 404.301,1171.04L404.301,1181.12C404.257,1182.14 403.959,1182.9 403.406,1183.41C402.854,1183.92 402.246,1184.17 401.583,1184.17C400.964,1184.17 400.389,1183.94 399.859,1183.48C399.329,1183.01 398.997,1182.29 398.865,1181.32L398.865,1171.24Z" style="fill:white;fill-opacity:0.704373;fill-rule:nonzero;"/>
            </g>
            <g transform="matrix(0.84,0,0,0.8,43.9925,242.748)">
                <path d="M409.738,1208.9C409.34,1208.11 409.207,1207.39 409.34,1206.75C409.472,1206.11 409.749,1205.6 410.168,1205.22C410.588,1204.85 411.13,1204.66 411.793,1204.66C412.456,1204.66 413.141,1204.9 413.848,1205.39C414.865,1206.67 416.069,1207.66 417.461,1208.37C418.854,1209.08 420.345,1209.5 421.936,1209.63L423.329,1209.23C423.682,1208.97 423.925,1208.79 424.058,1208.7C424.191,1208.61 424.29,1208.54 424.356,1208.47C424.423,1208.4 424.511,1208.3 424.621,1208.17C424.732,1208.04 424.92,1207.8 425.185,1207.44C425.273,1207.27 425.34,1207.09 425.384,1206.91C425.428,1206.74 425.494,1206.54 425.583,1206.32C425.583,1206.09 425.594,1205.89 425.616,1205.72C425.638,1205.54 425.649,1205.34 425.649,1205.12L425.251,1203.93C425.119,1203.75 424.975,1203.58 424.82,1203.4C424.666,1203.22 424.522,1203.04 424.389,1202.87C423.284,1202.16 422.18,1201.65 421.075,1201.34C419.97,1201.03 418.898,1200.71 417.859,1200.38C416.82,1200.05 415.804,1199.62 414.809,1199.09C413.815,1198.56 412.876,1197.7 411.992,1196.5C411.152,1195.44 410.699,1194.22 410.633,1192.82C410.566,1191.43 410.787,1190.09 411.296,1188.81C411.804,1187.53 412.555,1186.39 413.55,1185.4C414.544,1184.4 415.682,1183.77 416.964,1183.51C418.82,1183.07 420.71,1183.02 422.633,1183.38C424.555,1183.73 426.356,1184.35 428.036,1185.23C428.831,1185.81 429.296,1186.46 429.428,1187.19C429.561,1187.92 429.461,1188.55 429.13,1189.08C428.798,1189.61 428.29,1189.98 427.605,1190.2C426.92,1190.43 426.135,1190.32 425.251,1189.87C424.191,1189.3 423.075,1188.92 421.903,1188.75C420.732,1188.57 419.55,1188.57 418.356,1188.75C418.224,1188.83 418.08,1188.9 417.925,1188.94C417.771,1188.99 417.627,1189.06 417.494,1189.14C417.008,1189.67 416.655,1190.19 416.434,1190.7C416.213,1191.21 416.124,1191.84 416.168,1192.59C416.213,1192.77 416.323,1193.03 416.5,1193.39C416.633,1193.56 416.765,1193.72 416.898,1193.85C417.03,1193.98 417.163,1194.14 417.296,1194.32C418.356,1194.89 419.517,1195.34 420.776,1195.67C422.036,1196.01 423.262,1196.38 424.456,1196.8C425.649,1197.22 426.754,1197.77 427.771,1198.46C428.787,1199.14 429.583,1200.15 430.157,1201.48C431.218,1204 431.384,1206.32 430.655,1208.44C429.925,1210.56 428.456,1212.35 426.246,1213.81C425.671,1214.16 425.03,1214.46 424.323,1214.7C423.616,1214.94 422.953,1215.07 422.334,1215.07C419.947,1215.07 417.605,1214.53 415.307,1213.44C413.008,1212.36 411.152,1210.85 409.738,1208.9Z" style="fill:white;fill-opacity:0.704373;fill-rule:nonzero;"/>
            </g>
            <g transform="matrix(0.84,0,0,0.8,43.9925,242.748)">
                <path d="M476.301,1195.11C476.301,1194.98 476.323,1194.89 476.367,1194.85C476.323,1194.71 476.301,1194.54 476.301,1194.32L476.301,1193.59C475.771,1192.22 474.931,1191.22 473.782,1190.6C472.633,1189.98 471.373,1189.65 470.003,1189.61C469.03,1189.92 468.102,1190.38 467.218,1191L465.826,1192.79C465.693,1192.97 465.561,1193.11 465.428,1193.22C465.296,1193.33 465.163,1193.43 465.03,1193.52L465.03,1211.75C464.986,1212.77 464.688,1213.53 464.135,1214.04C463.583,1214.55 462.975,1214.8 462.312,1214.8C461.693,1214.8 461.119,1214.57 460.588,1214.11C460.058,1213.64 459.726,1212.92 459.594,1211.95L459.594,1186.29C459.815,1185.41 460.168,1184.76 460.655,1184.34C461.141,1183.92 461.693,1183.71 462.312,1183.71C462.842,1183.71 463.362,1183.89 463.87,1184.27C464.378,1184.65 464.743,1185.23 464.964,1186.03C465.671,1185.54 466.522,1185.09 467.517,1184.67C468.511,1184.25 469.561,1184.04 470.666,1184.04C472.257,1184.04 473.881,1184.45 475.539,1185.27C477.196,1186.08 478.533,1187.11 479.55,1188.35C480.036,1187.86 480.555,1187.37 481.108,1186.86C481.66,1186.35 482.246,1185.88 482.865,1185.46C483.483,1185.04 484.124,1184.69 484.787,1184.4C485.45,1184.12 486.113,1183.97 486.776,1183.97C488.146,1183.97 489.494,1184.2 490.82,1184.67C492.146,1185.13 493.329,1185.77 494.367,1186.59C495.406,1187.41 496.246,1188.36 496.887,1189.44C497.528,1190.53 497.848,1191.66 497.848,1192.86C497.848,1192.94 497.837,1193.01 497.815,1193.06C497.793,1193.1 497.782,1193.17 497.782,1193.25C497.826,1193.3 497.848,1193.34 497.848,1193.39C497.848,1193.43 497.87,1193.48 497.914,1193.52L497.914,1211.49C497.87,1212.5 497.572,1213.27 497.019,1213.77C496.467,1214.28 495.859,1214.54 495.196,1214.54C494.577,1214.54 494.003,1214.3 493.472,1213.84C492.942,1213.38 492.61,1212.66 492.478,1211.68L492.478,1193.52C491.992,1191.97 491.24,1190.92 490.224,1190.37C489.207,1189.82 488.191,1189.54 487.174,1189.54C486.025,1189.54 484.986,1189.83 484.058,1190.4C483.13,1190.98 482.356,1192.04 481.738,1193.59L481.738,1211.42C481.693,1212.44 481.395,1213.2 480.842,1213.71C480.29,1214.22 479.682,1214.47 479.019,1214.47C478.4,1214.47 477.826,1214.24 477.296,1213.77C476.765,1213.31 476.434,1212.59 476.301,1211.62L476.301,1195.11Z" style="fill:white;fill-opacity:0.704373;fill-rule:nonzero;"/>
            </g>
            <g transform="matrix(0.84,0,0,0.8,43.9925,242.748)">
                <path d="M503.417,1197.5C503.903,1196.08 504.5,1194.7 505.207,1193.35C505.914,1192.01 506.754,1190.78 507.726,1189.67C508.699,1188.57 509.815,1187.62 511.075,1186.82C512.334,1186.03 513.738,1185.45 515.284,1185.1C517.848,1184.53 520.091,1184.72 522.014,1185.7C523.936,1186.67 525.472,1188.06 526.621,1189.87C527.771,1191.68 528.533,1193.75 528.909,1196.07C529.284,1198.39 529.185,1200.61 528.61,1202.74C527.947,1205.34 526.776,1207.77 525.097,1210.03C523.417,1212.28 521.296,1213.92 518.732,1214.93C516.831,1215.68 515.008,1215.96 513.262,1215.76C511.517,1215.56 509.947,1215 508.555,1214.07C507.163,1213.14 505.981,1211.93 505.008,1210.43C504.036,1208.92 503.373,1207.22 503.019,1205.32C502.798,1204.13 502.721,1202.96 502.787,1201.81C502.854,1200.66 502.997,1199.51 503.218,1198.36L503.417,1197.5ZM508.588,1199.02C508.412,1199.95 508.29,1200.8 508.224,1201.58C508.157,1202.35 508.191,1203.22 508.323,1204.19C508.456,1205.39 508.831,1206.46 509.45,1207.41C510.069,1208.36 510.82,1209.09 511.704,1209.6C512.588,1210.11 513.572,1210.35 514.655,1210.33C515.738,1210.3 516.831,1209.96 517.936,1209.3C519.395,1208.41 520.555,1207.27 521.417,1205.85C522.279,1204.44 522.931,1202.91 523.373,1201.28C523.726,1199.95 523.804,1198.54 523.605,1197.03C523.406,1195.53 522.953,1194.2 522.246,1193.06C521.539,1191.91 520.588,1191.08 519.395,1190.57C518.202,1190.06 516.787,1190.14 515.152,1190.8C513.384,1191.55 511.992,1192.68 510.975,1194.18C509.959,1195.68 509.163,1197.3 508.588,1199.02Z" style="fill:white;fill-opacity:0.704373;fill-rule:nonzero;"/>
            </g>
            <g transform="matrix(0.84,0,0,0.8,43.9925,242.748)">
                <path d="M535.903,1190.67C535.24,1190.32 534.754,1189.89 534.445,1189.41C534.135,1188.92 533.981,1188.44 533.981,1187.95C533.981,1187.29 534.224,1186.7 534.71,1186.19C535.196,1185.68 535.859,1185.43 536.699,1185.43C537.318,1185.43 538.091,1185.65 539.019,1186.09C539.947,1186.54 540.677,1187.02 541.207,1187.55C542.577,1186.4 543.992,1185.45 545.45,1184.7C546.909,1183.95 548.389,1183.58 549.892,1183.58C550.334,1183.58 550.975,1183.68 551.815,1183.91C552.655,1184.13 553.483,1184.46 554.301,1184.9C555.119,1185.34 555.837,1185.92 556.456,1186.62C557.075,1187.33 557.384,1188.15 557.384,1189.08C557.384,1189.83 557.141,1190.44 556.655,1190.9C556.168,1191.37 555.572,1191.6 554.865,1191.6C554.378,1191.6 553.947,1191.45 553.572,1191.17C553.196,1190.88 552.82,1190.57 552.445,1190.24C552.069,1189.91 551.671,1189.61 551.251,1189.34C550.831,1189.08 550.356,1188.94 549.826,1188.94C549.207,1188.94 548.533,1189.13 547.804,1189.51C547.075,1189.88 546.345,1190.34 545.616,1190.87C544.887,1191.4 544.191,1191.97 543.528,1192.59C542.865,1193.21 542.29,1193.76 541.804,1194.25L541.804,1211.88C541.76,1212.9 541.461,1213.66 540.909,1214.17C540.356,1214.68 539.749,1214.93 539.086,1214.93C538.467,1214.93 537.892,1214.7 537.362,1214.24C536.831,1213.77 536.5,1213.06 536.367,1212.08L536.367,1193.98C536.367,1193.89 536.356,1193.8 536.334,1193.68C536.312,1193.58 536.301,1193.48 536.301,1193.39C536.301,1193.3 536.312,1193.2 536.334,1193.09C536.356,1192.98 536.367,1192.88 536.367,1192.79L536.367,1190.87C536.191,1190.78 536.036,1190.71 535.903,1190.67Z" style="fill:white;fill-opacity:0.704373;fill-rule:nonzero;"/>
            </g>
            <g transform="matrix(0.84,0,0,0.8,43.9925,242.748)">
                <path d="M581.914,1205.98C582.842,1205.63 583.638,1205.59 584.301,1205.85C584.964,1206.12 585.439,1206.54 585.726,1207.11C586.014,1207.68 586.058,1208.33 585.859,1209.03C585.66,1209.74 585.141,1210.34 584.301,1210.82C582.842,1211.66 581.273,1212.44 579.594,1213.14C577.914,1213.85 576.213,1214.34 574.489,1214.6C572.765,1214.87 571.063,1214.86 569.384,1214.57C567.704,1214.28 566.091,1213.61 564.544,1212.55C562.688,1211.27 561.273,1209.53 560.301,1207.34C559.329,1205.15 558.82,1202.88 558.776,1200.51C558.732,1198.15 559.163,1195.87 560.069,1193.68C560.975,1191.5 562.4,1189.74 564.345,1188.41C566.378,1187.04 568.588,1186.02 570.975,1185.33C573.362,1184.65 575.771,1184.57 578.202,1185.1C579.395,1185.37 580.478,1185.93 581.45,1186.79C582.423,1187.65 583.207,1188.65 583.804,1189.77C584.4,1190.9 584.721,1192.09 584.765,1193.35C584.809,1194.61 584.5,1195.8 583.837,1196.9C583.086,1198.14 582.003,1199.19 580.588,1200.05C579.174,1200.91 577.638,1201.64 575.981,1202.24C574.323,1202.83 572.666,1203.33 571.008,1203.73C569.351,1204.13 567.903,1204.5 566.666,1204.86C566.135,1204.99 565.627,1205.01 565.141,1204.92C565.804,1206.34 566.787,1207.5 568.091,1208.4C569.395,1209.31 571.019,1209.7 572.964,1209.56C574.511,1209.48 576.069,1209.04 577.638,1208.27C579.207,1207.5 580.633,1206.74 581.914,1205.98ZM568.986,1191.86C567.351,1192.7 566.135,1193.88 565.34,1195.41C564.544,1196.93 564.146,1198.54 564.146,1200.22C564.456,1200 564.787,1199.82 565.141,1199.68C565.936,1199.46 566.743,1199.23 567.561,1198.99C568.378,1198.75 569.207,1198.51 570.047,1198.29C570.577,1198.16 571.296,1197.96 572.202,1197.7C573.108,1197.43 574.047,1197.12 575.019,1196.77C575.992,1196.41 576.876,1196.01 577.671,1195.54C578.467,1195.08 578.997,1194.56 579.262,1193.98C579.351,1192.53 578.997,1191.53 578.202,1191C577.406,1190.47 576.456,1190.2 575.351,1190.2C574.246,1190.2 573.097,1190.39 571.903,1190.77C570.71,1191.14 569.738,1191.51 568.986,1191.86Z" style="fill:white;fill-opacity:0.704373;fill-rule:nonzero;"/>
            </g>
            <g transform="matrix(0.84,0,0,0.8,43.9925,242.748)">
                <path d="M619.041,1212.68C618.29,1213.12 617.583,1213.31 616.92,1213.24C616.257,1213.18 615.726,1212.94 615.329,1212.55C614.931,1212.15 614.699,1211.62 614.633,1210.96C614.566,1210.29 614.754,1209.59 615.196,1208.83L615.395,1208.64L615.395,1174.16C615.572,1173.32 615.914,1172.68 616.423,1172.24C616.931,1171.8 617.461,1171.56 618.014,1171.54C618.566,1171.52 619.108,1171.71 619.638,1172.11C620.168,1172.5 620.566,1173.12 620.831,1173.96L620.831,1189.74C621.804,1188.81 622.842,1188.08 623.947,1187.55C624.964,1186.98 625.925,1186.57 626.831,1186.33C627.738,1186.08 628.765,1185.89 629.914,1185.76C631.063,1185.59 632.146,1185.7 633.163,1186.09C634.18,1186.49 635.174,1186.98 636.146,1187.55C637.428,1188.3 638.4,1189.34 639.063,1190.67C639.726,1192 640.191,1193.42 640.456,1194.94C640.721,1196.47 640.831,1198.02 640.787,1199.59C640.743,1201.15 640.61,1202.56 640.389,1203.8C640.301,1204.5 640.102,1205.18 639.793,1205.82C639.483,1206.46 639.152,1207.09 638.798,1207.71C638.18,1208.94 637.34,1210 636.279,1210.86C635.218,1211.72 634.036,1212.4 632.732,1212.91C631.428,1213.42 630.08,1213.77 628.688,1213.97C627.296,1214.17 625.981,1214.23 624.743,1214.14C623.726,1214.05 622.754,1213.89 621.826,1213.67C620.898,1213.45 619.992,1213.08 619.108,1212.55C619.108,1212.59 619.086,1212.64 619.041,1212.68ZM620.831,1197.96L620.831,1207.24C620.964,1207.33 621.207,1207.46 621.561,1207.64C621.649,1207.73 621.738,1207.8 621.826,1207.84C621.914,1207.88 622.003,1207.95 622.091,1208.04C624.389,1208.92 626.577,1209.08 628.655,1208.5C630.732,1207.93 632.566,1206.71 634.157,1204.86C634.599,1203.8 634.92,1202.81 635.119,1201.91C635.318,1201 635.417,1200.09 635.417,1199.19C635.417,1198.28 635.329,1197.37 635.152,1196.44C634.975,1195.51 634.688,1194.51 634.29,1193.45C634.069,1193.23 633.881,1193 633.726,1192.76C633.572,1192.51 633.384,1192.28 633.163,1192.06C632.942,1191.97 632.732,1191.86 632.533,1191.73C632.334,1191.6 632.124,1191.49 631.903,1191.4C631.682,1191.35 631.439,1191.31 631.174,1191.27C630.909,1191.22 630.666,1191.18 630.445,1191.13C628.323,1191.49 626.577,1192.2 625.207,1193.29C623.837,1194.37 622.555,1195.75 621.362,1197.43L620.831,1197.96Z" style="fill:white;fill-opacity:0.704373;fill-rule:nonzero;"/>
            </g>
            <g transform="matrix(0.84,0,0,0.8,43.9925,242.748)">
                <path d="M648.876,1190.67C648.213,1190.32 647.726,1189.89 647.417,1189.41C647.108,1188.92 646.953,1188.44 646.953,1187.95C646.953,1187.29 647.196,1186.7 647.682,1186.19C648.168,1185.68 648.831,1185.43 649.671,1185.43C650.29,1185.43 651.063,1185.65 651.992,1186.09C652.92,1186.54 653.649,1187.02 654.18,1187.55C655.55,1186.4 656.964,1185.45 658.423,1184.7C659.881,1183.95 661.362,1183.58 662.865,1183.58C663.307,1183.58 663.947,1183.68 664.787,1183.91C665.627,1184.13 666.456,1184.46 667.273,1184.9C668.091,1185.34 668.809,1185.92 669.428,1186.62C670.047,1187.33 670.356,1188.15 670.356,1189.08C670.356,1189.83 670.113,1190.44 669.627,1190.9C669.141,1191.37 668.544,1191.6 667.837,1191.6C667.351,1191.6 666.92,1191.45 666.544,1191.17C666.168,1190.88 665.793,1190.57 665.417,1190.24C665.041,1189.91 664.644,1189.61 664.224,1189.34C663.804,1189.08 663.329,1188.94 662.798,1188.94C662.18,1188.94 661.505,1189.13 660.776,1189.51C660.047,1189.88 659.318,1190.34 658.588,1190.87C657.859,1191.4 657.163,1191.97 656.5,1192.59C655.837,1193.21 655.262,1193.76 654.776,1194.25L654.776,1211.88C654.732,1212.9 654.434,1213.66 653.881,1214.17C653.329,1214.68 652.721,1214.93 652.058,1214.93C651.439,1214.93 650.865,1214.7 650.334,1214.24C649.804,1213.77 649.472,1213.06 649.34,1212.08L649.34,1193.98C649.34,1193.89 649.329,1193.8 649.307,1193.68C649.284,1193.58 649.273,1193.48 649.273,1193.39C649.273,1193.3 649.284,1193.2 649.307,1193.09C649.329,1192.98 649.34,1192.88 649.34,1192.79L649.34,1190.87C649.163,1190.78 649.008,1190.71 648.876,1190.67Z" style="fill:white;fill-opacity:0.704373;fill-rule:nonzero;"/>
            </g>
            <g transform="matrix(0.84,0,0,0.8,43.9925,242.748)">
                <path d="M696.08,1210.89C696.08,1210.93 696.058,1210.96 696.014,1210.96C696.279,1211.58 696.345,1212.15 696.213,1212.68C696.08,1213.21 695.826,1213.64 695.45,1213.97C695.075,1214.3 694.588,1214.51 693.992,1214.6C693.395,1214.69 692.743,1214.56 692.036,1214.2C691.638,1213.81 691.262,1213.38 690.909,1212.91C690.555,1212.45 690.246,1211.97 689.981,1211.49C689.097,1212.24 688.146,1212.93 687.13,1213.58C686.113,1214.22 685.097,1214.56 684.08,1214.6C682.312,1214.69 680.566,1214.71 678.842,1214.67C677.119,1214.62 675.483,1214.05 673.936,1212.94C672.655,1212.02 671.671,1210.91 670.986,1209.63C670.301,1208.35 669.859,1206.99 669.66,1205.55C669.461,1204.12 669.472,1202.65 669.693,1201.14C669.914,1199.64 670.29,1198.2 670.82,1196.83C671.041,1196.22 671.329,1195.62 671.682,1195.04C672.036,1194.47 672.389,1193.87 672.743,1193.25C673.229,1192.37 673.782,1191.54 674.4,1190.77C675.019,1190 675.726,1189.32 676.522,1188.75C677.097,1188.35 677.66,1187.95 678.213,1187.55C678.765,1187.15 679.329,1186.78 679.903,1186.43C680.301,1186.16 680.909,1185.88 681.726,1185.6C682.544,1185.31 683.428,1185.07 684.378,1184.87C685.329,1184.67 686.279,1184.57 687.229,1184.57C688.18,1184.57 688.986,1184.7 689.649,1184.97C690.268,1184.88 690.876,1185.03 691.472,1185.43C692.069,1185.83 692.522,1186.47 692.831,1187.35C692.831,1190.36 692.809,1193.39 692.765,1196.44C692.721,1199.49 692.92,1202.51 693.362,1205.52C693.406,1205.92 693.572,1206.39 693.859,1206.94C694.146,1207.5 694.456,1208.04 694.787,1208.57C695.119,1209.1 695.417,1209.59 695.682,1210.03C695.947,1210.47 696.08,1210.76 696.08,1210.89ZM687.66,1206.32C687.749,1206.27 687.815,1206.23 687.859,1206.18C687.903,1206.14 687.97,1206.09 688.058,1206.05C687.483,1203.4 687.207,1200.65 687.229,1197.8C687.251,1194.94 687.284,1192.33 687.329,1189.94C686.931,1189.94 686.489,1189.98 686.003,1190.07C685.517,1190.16 685.041,1190.28 684.577,1190.44C684.113,1190.59 683.693,1190.74 683.318,1190.87C682.942,1191 682.666,1191.11 682.489,1191.2C681.163,1191.82 680.036,1192.62 679.108,1193.62C678.18,1194.61 677.417,1195.72 676.82,1196.93C676.224,1198.15 675.771,1199.43 675.461,1200.78C675.152,1202.13 674.997,1203.49 674.997,1204.86C675.086,1205.21 675.196,1205.56 675.329,1205.92C675.461,1206.27 675.572,1206.62 675.66,1206.98C675.881,1207.2 676.113,1207.44 676.356,1207.71C676.599,1207.97 676.854,1208.22 677.119,1208.44C677.517,1208.61 677.914,1208.77 678.312,1208.9C678.71,1209.03 679.108,1209.17 679.505,1209.3C680.257,1209.3 680.986,1209.32 681.693,1209.37C682.4,1209.41 683.108,1209.32 683.815,1209.1C684.478,1208.66 685.13,1208.22 685.771,1207.77C686.412,1207.33 687.041,1206.85 687.66,1206.32Z" style="fill:white;fill-opacity:0.704373;fill-rule:nonzero;"/>
            </g>
            <g transform="matrix(0.84,0,0,0.8,43.9925,242.748)">
                <path d="M708.279,1211.62C708.235,1212.64 707.936,1213.4 707.384,1213.91C706.831,1214.41 706.224,1214.67 705.561,1214.67C704.942,1214.67 704.367,1214.44 703.837,1213.97C703.307,1213.51 702.975,1212.79 702.842,1211.82C702.798,1207.66 702.765,1203.42 702.743,1199.09C702.721,1194.76 702.688,1190.51 702.644,1186.36C702.865,1185.48 703.218,1184.81 703.704,1184.37C704.191,1183.93 704.743,1183.71 705.362,1183.71C705.936,1183.71 706.478,1183.91 706.986,1184.3C707.494,1184.7 707.859,1185.32 708.08,1186.16C708.124,1190.32 708.157,1194.56 708.18,1198.89C708.202,1203.22 708.235,1207.46 708.279,1211.62ZM702.18,1175.55C702.18,1174.58 702.489,1173.75 703.108,1173.07C703.726,1172.38 704.478,1172.04 705.362,1172.04C706.246,1172.04 707.008,1172.38 707.649,1173.07C708.29,1173.75 708.61,1174.58 708.61,1175.55C708.61,1176.48 708.29,1177.29 707.649,1177.97C707.008,1178.66 706.246,1179 705.362,1179C704.478,1179 703.726,1178.66 703.108,1177.97C702.489,1177.29 702.18,1176.48 702.18,1175.55Z" style="fill:white;fill-opacity:0.704373;fill-rule:nonzero;"/>
            </g>
            <g transform="matrix(0.84,0,0,0.8,43.9925,242.748)">
                <path d="M740.765,1211.75C740.721,1212.77 740.423,1213.53 739.87,1214.04C739.318,1214.55 738.71,1214.8 738.047,1214.8C737.428,1214.8 736.854,1214.57 736.323,1214.11C735.793,1213.64 735.461,1212.92 735.329,1211.95C735.329,1209.92 735.318,1207.89 735.296,1205.88C735.273,1203.87 735.262,1201.85 735.262,1199.82C735.262,1198.36 735.273,1196.9 735.296,1195.44C735.318,1193.98 735.218,1192.53 734.997,1191.07C734.644,1190.4 734.257,1190 733.837,1189.84C733.417,1189.68 732.92,1189.61 732.345,1189.61C730.842,1189.61 729.362,1189.97 727.903,1190.7C726.445,1191.43 725.296,1192.44 724.456,1193.72C723.97,1194.47 723.583,1195.1 723.296,1195.61C723.008,1196.12 722.82,1196.86 722.732,1197.83C722.732,1200.08 722.732,1202.34 722.732,1204.59C722.732,1206.85 722.754,1209.1 722.798,1211.35C722.754,1212.37 722.456,1213.13 721.903,1213.64C721.351,1214.15 720.743,1214.4 720.08,1214.4C719.461,1214.4 718.887,1214.17 718.356,1213.71C717.826,1213.24 717.494,1212.53 717.362,1211.55C717.362,1209.43 717.362,1207.38 717.362,1205.39C717.362,1203.4 717.351,1201.43 717.329,1199.49C717.307,1197.54 717.296,1195.56 717.296,1193.55C717.296,1191.54 717.296,1189.48 717.296,1187.35C717.517,1186.47 717.87,1185.81 718.356,1185.37C718.842,1184.92 719.395,1184.7 720.014,1184.7C720.588,1184.7 721.13,1184.9 721.638,1185.3C722.146,1185.7 722.511,1186.32 722.732,1187.15L722.732,1187.68C724.014,1186.58 725.461,1185.71 727.075,1185.07C728.688,1184.43 730.312,1184.11 731.947,1184.11C733.583,1184.11 735.119,1184.48 736.555,1185.23C737.992,1185.98 739.152,1187.2 740.036,1188.88C740.345,1189.45 740.555,1190.17 740.666,1191.03C740.776,1191.89 740.842,1192.8 740.865,1193.75C740.887,1194.7 740.876,1195.67 740.831,1196.67C740.787,1197.66 740.765,1198.6 740.765,1199.49L740.765,1211.75Z" style="fill:white;fill-opacity:0.704373;fill-rule:nonzero;"/>
            </g>
            <g transform="matrix(0.84,0,0,0.8,43.9925,242.748)">
                <path d="M769.273,1185.37C769.627,1184.75 770.025,1184.3 770.467,1184.04C770.909,1183.77 771.373,1183.64 771.859,1183.64C772.61,1183.64 773.229,1183.93 773.715,1184.5C774.202,1185.08 774.445,1185.87 774.445,1186.89C773.517,1190.47 772.345,1193.94 770.931,1197.3C769.517,1200.66 767.97,1203.95 766.29,1207.18C764.61,1210.4 762.842,1213.6 760.986,1216.76C759.13,1219.92 757.318,1223.11 755.55,1226.34C755.196,1226.82 754.798,1227.17 754.356,1227.37C753.914,1227.56 753.494,1227.66 753.097,1227.66C752.434,1227.66 751.859,1227.42 751.373,1226.93C750.887,1226.45 750.644,1225.76 750.644,1224.88C750.644,1224.75 750.644,1224.6 750.644,1224.45C750.644,1224.29 750.666,1224.13 750.71,1223.95C752.168,1221.25 753.671,1218.6 755.218,1216C756.765,1213.39 758.268,1210.76 759.726,1208.11C757.959,1206.69 756.367,1205.24 754.953,1203.76C753.539,1202.28 752.268,1200.71 751.141,1199.06C750.014,1197.4 749.03,1195.61 748.191,1193.68C747.351,1191.76 746.621,1189.67 746.003,1187.42C746.003,1186.27 746.235,1185.4 746.699,1184.8C747.163,1184.2 747.793,1183.91 748.588,1183.91C749.163,1183.91 749.704,1184.09 750.213,1184.47C750.721,1184.85 751.086,1185.45 751.307,1186.29C751.793,1188.15 752.378,1189.86 753.063,1191.43C753.749,1193 754.544,1194.46 755.45,1195.81C756.356,1197.15 757.373,1198.44 758.5,1199.65C759.627,1200.87 760.876,1202.05 762.246,1203.2C763.704,1200.33 765.041,1197.43 766.257,1194.51C767.472,1191.6 768.478,1188.55 769.273,1185.37Z" style="fill:white;fill-opacity:0.704373;fill-rule:nonzero;"/>
            </g>
            <g transform="matrix(0.84,0,0,0.8,43.9925,242.748)">
                <path d="M791.483,1198.62C792.412,1198.89 793.063,1199.34 793.439,1199.98C793.815,1200.62 793.936,1201.25 793.804,1201.87C793.671,1202.49 793.307,1203.02 792.71,1203.46C792.113,1203.91 791.329,1204.06 790.356,1203.93C789.03,1203.66 787.925,1203.14 787.041,1202.37C786.157,1201.6 785.517,1200.7 785.119,1199.68C784.721,1198.67 784.61,1197.56 784.787,1196.37C784.964,1195.18 785.472,1194.03 786.312,1192.92C786.842,1192.22 787.561,1191.5 788.467,1190.77C789.373,1190.04 790.29,1189.31 791.218,1188.58C792.146,1187.85 793.008,1187.11 793.804,1186.36C794.599,1185.61 795.163,1184.82 795.494,1184.01C795.826,1183.19 795.848,1182.35 795.561,1181.49C795.273,1180.62 794.489,1179.73 793.207,1178.8C793.075,1178.76 792.942,1178.71 792.809,1178.67C792.677,1178.62 792.522,1178.58 792.345,1178.54C790.445,1178.62 788.699,1179.2 787.108,1180.26C785.517,1181.32 784.146,1182.6 782.997,1184.11C782.378,1184.86 781.704,1185.28 780.975,1185.37C780.246,1185.45 779.616,1185.31 779.086,1184.93C778.555,1184.56 778.213,1184.01 778.058,1183.28C777.903,1182.55 778.091,1181.76 778.621,1180.92C779.505,1179.77 780.555,1178.67 781.771,1177.61C782.986,1176.55 784.29,1175.66 785.682,1174.96C787.075,1174.25 788.5,1173.74 789.959,1173.43C791.417,1173.12 792.809,1173.11 794.135,1173.4C795.461,1173.68 796.688,1174.32 797.815,1175.29C798.942,1176.26 799.881,1177.67 800.633,1179.53C801.119,1180.72 801.318,1181.87 801.229,1182.98C801.141,1184.08 800.876,1185.14 800.434,1186.16C799.992,1187.18 799.395,1188.12 798.644,1188.98C797.892,1189.84 797.052,1190.65 796.124,1191.4C795.815,1191.66 795.273,1192.05 794.5,1192.56C793.726,1193.07 792.986,1193.64 792.279,1194.28C791.572,1194.92 791.008,1195.59 790.588,1196.27C790.168,1196.96 790.113,1197.63 790.423,1198.29C790.511,1198.38 790.577,1198.43 790.621,1198.43C790.754,1198.51 790.898,1198.56 791.052,1198.56C791.207,1198.56 791.351,1198.58 791.483,1198.62ZM785.914,1210.69C785.914,1209.67 786.268,1208.81 786.975,1208.11C787.682,1207.4 788.544,1207.04 789.561,1207.04C790.577,1207.04 791.45,1207.4 792.18,1208.11C792.909,1208.81 793.273,1209.67 793.273,1210.69C793.273,1211.71 792.909,1212.58 792.18,1213.31C791.45,1214.04 790.577,1214.4 789.561,1214.4C788.544,1214.4 787.682,1214.04 786.975,1213.31C786.268,1212.58 785.914,1211.71 785.914,1210.69Z" style="fill:white;fill-opacity:0.704373;fill-rule:nonzero;"/>
            </g>
        </g>
    </g>
</svg>
