<?xml version="1.0" standalone="no"?>
<!DOCTYPE svg PUBLIC "-//W3C//DTD SVG 1.1//EN" "http://www.w3.org/Graphics/SVG/1.1/DTD/svg11.dtd">
<svg width="100%" height="100%" viewBox="0 0 240 198" version="1.1" xmlns="http://www.w3.org/2000/svg" xmlns:xlink="http://www.w3.org/1999/xlink" xml:space="preserve" style="fill-rule:evenodd;clip-rule:evenodd;stroke-linecap:round;stroke-linejoin:round;stroke-miterlimit:1.41421;">
    <g transform="matrix(1,0,0,1,-33.0058,-65.405)">
        <g transform="matrix(2.07262,0.12844,-0.12844,2.07262,-36.6314,-52.5105)">
            <path d="M68.632,62.353C69.013,58.678 80.02,51.463 87.266,60.265C88.269,52.765 101.988,49.356 105.943,58.842C110.59,50.949 124.483,53.734 124.199,64.156C130.511,62.064 136.319,65.385 136.097,72.734C143.461,71.659 150.046,79.915 145.829,88.076C153.674,89.645 153.779,99.874 148.723,103.419C151.053,107.086 148.95,114.441 143.361,116.431C142.249,120.222 139.501,127.786 128.734,129.053C114.573,130.721 76.853,131.175 68.447,132.198C46.331,134.891 39.218,115.205 44.218,103.87C40.072,98.685 42.974,92.775 47.177,91.13C44.897,86.53 47.531,80.006 52.8,78.782" style="fill:rgb(131,106,202);"/>
        </g>
        <g transform="matrix(2.35468,-0.115625,0.122133,2.48721,-99.2527,3.45184)">
            <path d="M68.554,88.321C68.554,88.321 122.67,91.936 126.753,91.92C132.19,91.9 135.277,87.923 136.16,85.472C136.734,83.88 137.724,83.107 139.091,82.798C141.318,82.293 142.369,80.022 141.249,78.093C140.638,77.042 140.682,75.234 142.252,74.399C144.008,73.465 144.271,69.945 142.564,69.104C139.811,67.746 140.186,65.655 140.924,64.578C143.011,61.537 140.453,57.409 137.894,57.436C135.062,57.466 133.077,55.624 133.954,52.476C134.729,49.693 131.519,48.124 129.36,48.796C126.684,49.628 123.855,47.334 124.961,44.032C126.144,40.504 119.46,37.707 117.117,41.415C115.848,43.424 112.599,43.001 112.219,40.896C110.843,33.269 101.119,34.223 98.402,35.255C92.263,30.312 84.559,32.977 81.809,37.144C74.377,36.588 65.754,43.234 66.777,48.905C59.066,50.06 58.753,55.181 59.964,58.446C55.837,59.614 52.729,65.164 56.228,69.182C52.665,79.659 57.72,88.344 68.554,88.321Z" style="fill:rgb(197,179,254);"/>
        </g>
        <path d="M101.117,86.766C99.538,91.266 92.82,89.427 94.042,84.242C94.742,81.274 101.261,72.087 114.118,70.148C126.975,68.21 135.25,75.998 135.25,75.998C135.25,75.998 141.779,65.215 156.716,65.408C170.846,65.589 176.482,75.024 176.482,75.024C176.482,75.024 187.713,65.257 203.521,72.271C216.666,78.103 217.551,90.492 217.551,90.492C217.551,90.492 226.727,88.648 234.334,95.833C241.941,103.018 241.523,110.446 241.523,110.446C241.523,110.446 254.981,112.178 261.075,125.529C266.106,136.55 261.95,145.822 261.95,145.822C261.95,145.822 272.855,151.453 272.475,165.51C272.159,177.203 265.367,182.992 265.367,182.992C265.367,182.992 267.504,191.629 262.415,200.322C257.325,209.016 250.25,211.685 250.25,211.685C250.25,211.685 246.423,221.423 240.413,226.772C234.403,232.121 226.416,237.365 208.132,237.584C189.848,237.802 81.468,235.324 81.468,235.324C81.468,235.324 50.301,235.244 38.03,209.421C27.242,186.718 37.184,168.737 37.184,168.737C37.184,168.737 32.114,161.597 34.655,152.963C37.195,144.33 44.858,140.107 44.858,140.107C44.858,140.107 42.05,132.549 47.92,123.496C53.124,115.47 59.691,114.32 62.507,113.843C65.324,113.367 69.111,119.19 63.465,121.09C57.786,123.001 55.444,125.353 53.805,128.753C52.023,132.451 51.253,135.836 53.015,140.247C53.979,142.658 53.627,144.86 50.726,146.226C47.825,147.592 43.755,150.425 42.786,155.343C41.818,160.261 44.282,164.628 45.02,165.617C45.758,166.606 46.394,168.831 45.401,170.674C44.409,172.516 36.406,191.086 48.823,208.984C61.24,226.882 78.215,224.92 82.353,224.937C86.49,224.954 194.88,226.133 207.637,225.888C220.394,225.642 225.72,222.914 228.601,221.004C231.483,219.093 236.256,214.379 238.586,208.547C240.917,202.715 241.39,202.176 246.617,200.292C251.845,198.407 255.174,188.988 253.51,184.716C251.847,180.445 251.924,178.412 256.196,175.237C259.971,172.431 260.937,166.712 260.686,164.149C260.436,161.586 258.706,155.492 253.272,154.309C247.838,153.125 247.681,148.363 249.969,144.773C252.257,141.183 253.019,133.675 250.608,129.729C248.197,125.784 244.125,120.903 237.782,121.102C231.438,121.301 230.445,117.419 230.813,114.052C231.181,110.686 230.196,105.215 226.829,103.307C223.463,101.399 221.015,100.351 215.039,101.099C209.064,101.847 206.932,99.015 207.512,94.337C208.091,89.659 204.687,82.514 197.785,80.44C190.883,78.367 183.745,79.473 179.944,84.799C176.186,90.065 171.829,87.327 170.798,83.97C169.888,81.003 165.483,74.458 156.701,74.271C148.323,74.093 142.163,79.019 140.804,83.878C139.32,89.182 134.495,88.417 132.861,85.773C131.038,82.824 124.561,75.954 115.225,77.773C105.889,79.593 102.239,83.567 101.117,86.766Z" style="fill:white;"/>
        <g transform="matrix(1.31649,-0.208027,0.285503,1.8068,-45.5203,34.9801)">
            <circle cx="105.949" cy="83.707" r="5.605" style="fill:rgb(142,119,209);"/>
        </g>
        <g transform="matrix(1.33563,0.0114656,-0.0157021,1.82915,44.338,10.3806)">
            <circle cx="105.949" cy="83.707" r="5.605" style="fill:rgb(142,119,209);"/>
        </g>
        <g transform="matrix(2.5719,-0.0364632,0.0385155,2.71666,-107.608,-167.935)">
            <path d="M92.736,131.317C92.736,131.317 95.404,131.368 99.303,131.341C103.203,131.313 106.313,131.447 106.313,131.447C106.313,131.447 104.396,135.091 99.294,135.104C94.191,135.116 92.736,131.317 92.736,131.317Z" style="fill:rgb(142,119,209);stroke-width:2.27px;stroke:rgb(142,119,209);"/>
        </g>
        <g transform="matrix(1.06946,-0.0690705,0.0690705,1.06946,-423.404,-206.682)">
            <path d="M471.695,364.116C471.695,364.116 474.055,360.543 478.53,360.619" style="fill:none;stroke-width:4.67px;stroke:rgb(184,163,253);"/>
        </g>
        <g transform="matrix(0.764824,0.750703,-0.750703,0.764824,97.7662,-486.166)">
            <path d="M471.654,363.978C471.654,363.978 474.745,359.993 478.53,360.619" style="fill:none;stroke-width:4.67px;stroke:rgb(184,163,253);"/>
        </g>
        <g transform="matrix(1.13043,0.0276775,-0.0276775,1.13043,-405.058,-279.627)">
            <path d="M477.718,443.994C477.718,443.994 475.766,458.712 486.14,464.772C494.295,469.536 506.326,468.395 512.738,461.152C519.014,454.064 521.572,443.118 521.572,443.118L477.718,443.994Z" style="fill:white;"/>
        </g>
        <g transform="matrix(1.06946,-0.0690705,0.0690705,1.06946,-415.925,-199.713)">
            <path d="M492.415,410.942C490.953,411.019 490.321,412.711 490.943,414.271L500.409,437.481C500.409,437.481 501.889,447.224 495.692,447.442C490.564,447.623 489.442,442.993 490.839,440.94C492.048,439.163 494.733,440.147 494.003,442.869C493.473,444.85 498.92,444.894 498.165,439.4C497.636,435.553 493.063,434.057 489.818,435.104C484.964,436.671 481.697,440.949 482.856,447.446C485.035,459.652 505.628,462.058 510.267,445.112L521.129,415.404C521.875,413.37 521.366,412.205 519.342,412.089L513.239,411.877C512.199,411.944 511.693,412.362 511.429,412.939L510.451,415.41C509.763,416.385 509.269,416.119 508.863,415.29L507.831,412.748C507.422,412.009 506.888,411.575 506.229,411.447L504.861,411.381C504.059,411.514 503.476,411.874 503.112,412.461L502.356,415.284C501.928,416.401 500.63,416.478 500.094,415.263L498.566,412.426C498.256,411.83 497.569,411.369 496.333,411.105L492.415,410.942Z" style="fill:rgb(175,108,124);"/>
        </g>
    </g>
</svg>
