<?xml version="1.0" standalone="no"?>
<!DOCTYPE svg PUBLIC "-//W3C//DTD SVG 1.1//EN" "http://www.w3.org/Graphics/SVG/1.1/DTD/svg11.dtd">
<svg width="100%" height="100%" viewBox="0 0 285 796" version="1.1" xmlns="http://www.w3.org/2000/svg" xmlns:xlink="http://www.w3.org/1999/xlink" xml:space="preserve" style="fill-rule:evenodd;clip-rule:evenodd;stroke-linejoin:round;stroke-miterlimit:1.41421;">
    <g transform="matrix(1,0,0,1,-235,-29.9609)">
        <path d="M235,30C239.881,29.912 273,30 273,30L365.608,336.31C365.853,337.631 366.248,338.933 366.343,340.273C366.535,342.971 366.117,345.677 365.12,348.19C364.624,349.439 363.984,350.639 363.223,351.747C361.691,353.975 359.677,355.83 357.331,357.174C356.164,357.841 354.916,358.38 353.63,358.772C352.345,359.163 351.007,359.411 349.667,359.506C348.327,359.602 346.967,359.546 345.64,359.341C342.967,358.928 340.422,357.918 338.194,356.386C335.965,354.855 334.11,352.841 332.767,350.494C332.099,349.328 331.701,348.027 331.169,346.793L235,30Z" style="fill:white;fill-rule:nonzero;"/>
        <g transform="matrix(-0.48011,-1.79179,1.79179,-0.48011,-169.08,723.774)">
            <path d="M135.293,325.263L135.122,325.724L134.928,326.176L134.711,326.618L134.473,327.047L134.213,327.465L133.932,327.868L133.631,328.257L133.311,328.63L132.972,328.986L132.616,329.325L132.243,329.645L131.854,329.946L131.45,330.227L131.033,330.487L130.603,330.726L130.162,330.942L129.71,331.136L129.249,331.307L128.78,331.454L128.304,331.577L127.823,331.676L127.337,331.751L126.847,331.8L126.356,331.825L125.865,331.825L125.374,331.8L124.885,331.751L124.399,331.676L123.917,331.577L123.441,331.454L122.972,331.307L122.511,331.136L122.059,330.942L121.618,330.726L121.188,330.487L120.771,330.227L120.367,329.946L119.979,329.645L119.606,329.325L119.249,328.986L92.394,302.131L67.2,327.325L66.844,327.664L66.471,327.984L66.082,328.285L65.679,328.566L65.261,328.826L64.831,329.065L64.39,329.281L63.938,329.475L63.477,329.646L63.008,329.793L62.532,329.916L62.051,330.015L61.565,330.09L61.076,330.139L60.585,330.164L60.093,330.164L59.602,330.139L59.113,330.09L58.627,330.015L58.145,329.916L57.669,329.793L57.2,329.646L56.739,329.475L56.287,329.281L55.846,329.065L55.416,328.826L54.999,328.566L54.595,328.285L54.207,327.984L53.834,327.664L53.477,327.325L53.139,326.969L52.818,326.596L52.517,326.207L52.237,325.804L51.977,325.387L51.738,324.957L51.521,324.515L51.328,324.063L51.157,323.602L51.01,323.133L50.886,322.657L50.787,322.176L50.713,321.69L50.663,321.201L50.638,320.71L50.638,320.218L50.663,319.727L50.713,319.238L50.787,318.752L50.886,318.271L51.01,317.795L51.157,317.325L51.328,316.864L51.521,316.413L51.738,315.971L51.977,315.541L52.237,315.124L52.517,314.721L52.818,314.332L53.139,313.959L53.477,313.603L92.394,274.686L92.394,274.686L132.972,315.264L133.311,315.62L133.631,315.993L133.932,316.382L134.213,316.785L134.473,317.202L134.711,317.632L134.928,318.074L135.122,318.525L135.293,318.986L135.44,319.456L135.563,319.931L135.662,320.413L135.736,320.899L135.786,321.388L135.811,321.879L135.811,322.371L135.786,322.862L135.736,323.351L135.662,323.837L135.563,324.318L135.44,324.794L135.293,325.263Z" style="fill:white;"/>
        </g>
        <g transform="matrix(-1,0,0,-1,755,855.881)">
            <path d="M235,30C239.881,29.912 273,30 273,30L365.608,336.31C365.853,337.631 366.248,338.933 366.343,340.273C366.535,342.971 366.117,345.677 365.12,348.19C364.624,349.439 363.984,350.639 363.223,351.747C361.691,353.975 359.677,355.83 357.331,357.174C356.164,357.841 354.916,358.38 353.63,358.772C352.345,359.163 351.007,359.411 349.667,359.506C348.327,359.602 346.967,359.546 345.64,359.341C342.967,358.928 340.422,357.918 338.194,356.386C335.965,354.855 334.11,352.841 332.767,350.494C332.099,349.328 331.701,348.027 331.169,346.793L235,30Z" style="fill:white;fill-rule:nonzero;"/>
        </g>
        <g transform="matrix(0.48011,1.79179,-1.79179,0.48011,924.08,132.107)">
            <path d="M51.157,317.325L51.328,316.864L51.521,316.413L51.738,315.971L51.977,315.541L52.237,315.124L52.517,314.721L52.818,314.332L53.139,313.959L53.477,313.603L92.394,274.686L92.394,274.686L132.972,315.264L133.311,315.62L133.631,315.993L133.932,316.382L134.213,316.785L134.473,317.202L134.711,317.632L134.928,318.074L135.122,318.525L135.293,318.986L135.44,319.456L135.563,319.931L135.662,320.413L135.736,320.899L135.786,321.388L135.811,321.879L135.811,322.371L135.786,322.862L135.736,323.351L135.662,323.837L135.563,324.318L135.44,324.794L135.293,325.263L135.122,325.724L134.928,326.176L134.711,326.618L134.473,327.047L134.213,327.465L133.932,327.868L133.631,328.257L133.311,328.63L132.972,328.986L132.616,329.325L132.243,329.645L131.854,329.946L131.45,330.227L131.033,330.487L130.603,330.726L130.162,330.942L129.71,331.136L129.249,331.307L128.78,331.454L128.304,331.577L127.823,331.676L127.337,331.751L126.847,331.8L126.356,331.825L125.865,331.825L125.374,331.8L124.885,331.751L124.399,331.676L123.917,331.577L123.441,331.454L122.972,331.307L122.511,331.136L122.059,330.942L121.618,330.726L121.188,330.487L120.771,330.227L120.367,329.946L119.979,329.645L119.606,329.325L119.249,328.986L92.394,302.131L67.2,327.325L66.844,327.664L66.471,327.984L66.082,328.285L65.679,328.566L65.261,328.826L64.831,329.065L64.39,329.281L63.938,329.475L63.477,329.646L63.008,329.793L62.532,329.916L62.051,330.015L61.565,330.09L61.076,330.139L60.585,330.164L60.093,330.164L59.602,330.139L59.113,330.09L58.627,330.015L58.145,329.916L57.669,329.793L57.2,329.646L56.739,329.475L56.287,329.281L55.846,329.065L55.416,328.826L54.999,328.566L54.595,328.285L54.207,327.984L53.834,327.664L53.477,327.325L53.139,326.969L52.818,326.596L52.517,326.207L52.237,325.804L51.977,325.387L51.738,324.957L51.521,324.515L51.328,324.063L51.157,323.602L51.01,323.133L50.886,322.657L50.787,322.176L50.713,321.69L50.663,321.201L50.638,320.71L50.638,320.218L50.663,319.727L50.713,319.238L50.787,318.752L50.886,318.271L51.01,317.795L51.157,317.325Z" style="fill:white;"/>
        </g>
    </g>
</svg>
