<?xml version="1.0" standalone="no"?>
<!DOCTYPE svg PUBLIC "-//W3C//DTD SVG 1.1//EN" "http://www.w3.org/Graphics/SVG/1.1/DTD/svg11.dtd">
<svg width="100%" height="100%" viewBox="0 0 430 92" version="1.1" xmlns="http://www.w3.org/2000/svg" xmlns:xlink="http://www.w3.org/1999/xlink" xml:space="preserve" style="fill-rule:evenodd;clip-rule:evenodd;stroke-linejoin:round;stroke-miterlimit:1.41421;">
    <g transform="matrix(1,0,0,1,-45.473,-0)">
        <g transform="matrix(1.25183,0,0,1.28605,-188.867,-1497.87)">
            <path d="M529.938,1200.24C529.938,1180.63 513.576,1164.7 493.424,1164.7L223.712,1164.7C203.559,1164.7 187.198,1180.63 187.198,1200.24C187.198,1219.86 203.559,1235.79 223.712,1235.79L493.424,1235.79C513.576,1235.79 529.938,1219.86 529.938,1200.24Z" style="fill:rgb(233,161,53);"/>
        </g>
        <g transform="matrix(0.807373,0,0,0.807373,-138.075,-923.811)">
            <g transform="matrix(0.84,0,0,0.8,43.9925,242.748)">
                <path d="M325.87,1175.75C326.091,1174.87 326.456,1174.22 326.964,1173.8C327.472,1173.38 328.036,1173.17 328.655,1173.17C329.318,1173.17 329.914,1173.42 330.445,1173.93C330.975,1174.44 331.24,1175.18 331.24,1176.15L331.24,1176.41C330.71,1179.73 329.903,1183.07 328.82,1186.43C327.738,1189.79 326.599,1193.01 325.406,1196.11C324.345,1198.93 323.251,1201.96 322.124,1205.19C320.997,1208.41 319.749,1211.38 318.378,1214.07C317.671,1214.91 316.898,1215.33 316.058,1215.33C314.953,1215.33 314.091,1214.71 313.472,1213.48C312.5,1210.96 311.605,1208.61 310.787,1206.45C309.97,1204.28 309.196,1202.18 308.467,1200.15C307.738,1198.12 307.008,1196.11 306.279,1194.12C305.55,1192.13 304.765,1190.09 303.925,1188.02C303.395,1189.7 302.831,1191.35 302.235,1192.99C301.638,1194.62 301.03,1196.26 300.412,1197.89C299.439,1200.5 298.434,1203.22 297.395,1206.05C296.356,1208.88 295.196,1211.53 293.914,1214.01C293.207,1214.85 292.434,1215.27 291.594,1215.27C290.489,1215.27 289.627,1214.65 289.008,1213.41C287.992,1209.34 286.809,1205.35 285.461,1201.44C284.113,1197.53 282.688,1193.63 281.185,1189.74C280.434,1187.75 279.671,1185.66 278.898,1183.48C278.124,1181.29 277.251,1179.24 276.279,1177.34C276.014,1176.72 275.881,1176.17 275.881,1175.68C275.881,1174.93 276.124,1174.32 276.61,1173.83C277.097,1173.34 277.693,1173.1 278.4,1173.1C278.842,1173.1 279.284,1173.21 279.726,1173.43C280.168,1173.65 280.566,1174.03 280.92,1174.56C281.936,1176.59 282.876,1178.77 283.738,1181.09C284.599,1183.41 285.428,1185.63 286.224,1187.75C287.373,1190.76 288.434,1193.62 289.406,1196.34C290.378,1199.06 291.284,1201.85 292.124,1204.72C292.699,1203.31 293.229,1201.91 293.715,1200.51C294.202,1199.12 294.71,1197.74 295.24,1196.37C296.345,1193.45 297.406,1190.4 298.423,1187.22C299.439,1184.04 300.301,1180.92 301.008,1177.87C301.671,1176.77 302.511,1176.22 303.528,1176.22C304.5,1176.22 305.318,1176.7 305.981,1177.67C306.997,1180.33 307.936,1182.83 308.798,1185.2C309.66,1187.56 310.5,1189.88 311.318,1192.16C312.135,1194.44 312.942,1196.68 313.738,1198.89C314.533,1201.1 315.395,1203.35 316.323,1205.65C317.03,1204.02 317.704,1202.17 318.345,1200.12C318.986,1198.06 319.616,1196.22 320.235,1194.58C321.384,1191.62 322.478,1188.54 323.517,1185.33C324.555,1182.13 325.34,1178.93 325.87,1175.75Z" style="fill:white;fill-opacity:0.704373;fill-rule:nonzero;"/>
            </g>
            <g transform="matrix(0.84,0,0,0.8,43.9925,242.748)">
                <path d="M343.97,1211.68C343.925,1212.66 343.638,1213.4 343.108,1213.91C342.577,1214.41 341.992,1214.68 341.351,1214.7C340.71,1214.72 340.113,1214.5 339.561,1214.04C339.008,1213.58 338.666,1212.86 338.533,1211.88L338.533,1175.02C338.71,1174.18 339.052,1173.54 339.561,1173.1C340.069,1172.66 340.599,1172.43 341.152,1172.4C341.704,1172.38 342.246,1172.57 342.776,1172.97C343.307,1173.37 343.704,1173.98 343.97,1174.82L343.97,1190.4C344.633,1189.74 345.251,1189.21 345.826,1188.81C346.71,1188.19 347.539,1187.7 348.312,1187.32C349.086,1186.94 349.981,1186.65 350.997,1186.43C351.793,1186.2 352.599,1186.16 353.417,1186.29C354.235,1186.43 355.041,1186.6 355.837,1186.82C357.163,1187.22 358.301,1187.86 359.251,1188.75C360.202,1189.63 360.997,1190.66 361.638,1191.83C362.279,1193 362.754,1194.25 363.063,1195.58C363.373,1196.9 363.55,1198.18 363.594,1199.42C363.638,1201.54 363.649,1203.63 363.627,1205.68C363.605,1207.74 363.616,1209.83 363.66,1211.95C363.616,1212.92 363.329,1213.66 362.798,1214.17C362.268,1214.68 361.682,1214.94 361.041,1214.97C360.4,1214.99 359.804,1214.77 359.251,1214.3C358.699,1213.84 358.356,1213.12 358.224,1212.15C358.224,1210.03 358.224,1207.94 358.224,1205.88C358.224,1203.83 358.202,1201.74 358.157,1199.62C358.113,1198.03 357.815,1196.59 357.262,1195.31C356.71,1194.03 355.749,1192.94 354.378,1192.06C353.229,1191.75 352.191,1191.75 351.262,1192.06C350.334,1192.37 349.483,1192.85 348.71,1193.49C347.936,1194.13 347.218,1194.87 346.555,1195.71C345.892,1196.55 345.251,1197.37 344.633,1198.16C344.544,1198.29 344.434,1198.41 344.301,1198.53C344.168,1198.64 344.058,1198.74 343.97,1198.82L343.97,1211.68Z" style="fill:white;fill-opacity:0.704373;fill-rule:nonzero;"/>
            </g>
            <g transform="matrix(0.84,0,0,0.8,43.9925,242.748)">
                <path d="M369.561,1197.5C370.047,1196.08 370.644,1194.7 371.351,1193.35C372.058,1192.01 372.898,1190.78 373.87,1189.67C374.842,1188.57 375.959,1187.62 377.218,1186.82C378.478,1186.03 379.881,1185.45 381.428,1185.1C383.992,1184.53 386.235,1184.72 388.157,1185.7C390.08,1186.67 391.616,1188.06 392.765,1189.87C393.914,1191.68 394.677,1193.75 395.052,1196.07C395.428,1198.39 395.329,1200.61 394.754,1202.74C394.091,1205.34 392.92,1207.77 391.24,1210.03C389.561,1212.28 387.439,1213.92 384.876,1214.93C382.975,1215.68 381.152,1215.96 379.406,1215.76C377.66,1215.56 376.091,1215 374.699,1214.07C373.307,1213.14 372.124,1211.93 371.152,1210.43C370.18,1208.92 369.517,1207.22 369.163,1205.32C368.942,1204.13 368.865,1202.96 368.931,1201.81C368.997,1200.66 369.141,1199.51 369.362,1198.36L369.561,1197.5ZM374.732,1199.02C374.555,1199.95 374.434,1200.8 374.367,1201.58C374.301,1202.35 374.334,1203.22 374.467,1204.19C374.599,1205.39 374.975,1206.46 375.594,1207.41C376.213,1208.36 376.964,1209.09 377.848,1209.6C378.732,1210.11 379.715,1210.35 380.798,1210.33C381.881,1210.3 382.975,1209.96 384.08,1209.3C385.539,1208.41 386.699,1207.27 387.561,1205.85C388.423,1204.44 389.075,1202.91 389.517,1201.28C389.87,1199.95 389.947,1198.54 389.749,1197.03C389.55,1195.53 389.097,1194.2 388.389,1193.06C387.682,1191.91 386.732,1191.08 385.539,1190.57C384.345,1190.06 382.931,1190.14 381.296,1190.8C379.528,1191.55 378.135,1192.68 377.119,1194.18C376.102,1195.68 375.307,1197.3 374.732,1199.02Z" style="fill:white;fill-opacity:0.704373;fill-rule:nonzero;"/>
            </g>
            <g transform="matrix(0.84,0,0,0.8,43.9925,242.748)">
                <path d="M398.865,1171.24C399.086,1170.36 399.439,1169.7 399.925,1169.25C400.412,1168.81 400.964,1168.59 401.583,1168.59C402.157,1168.59 402.699,1168.79 403.207,1169.19C403.715,1169.59 404.08,1170.2 404.301,1171.04L404.301,1181.12C404.257,1182.14 403.959,1182.9 403.406,1183.41C402.854,1183.92 402.246,1184.17 401.583,1184.17C400.964,1184.17 400.389,1183.94 399.859,1183.48C399.329,1183.01 398.997,1182.29 398.865,1181.32L398.865,1171.24Z" style="fill:white;fill-opacity:0.704373;fill-rule:nonzero;"/>
            </g>
            <g transform="matrix(0.84,0,0,0.8,43.9925,242.748)">
                <path d="M409.738,1208.9C409.34,1208.11 409.207,1207.39 409.34,1206.75C409.472,1206.11 409.749,1205.6 410.168,1205.22C410.588,1204.85 411.13,1204.66 411.793,1204.66C412.456,1204.66 413.141,1204.9 413.848,1205.39C414.865,1206.67 416.069,1207.66 417.461,1208.37C418.854,1209.08 420.345,1209.5 421.936,1209.63L423.329,1209.23C423.682,1208.97 423.925,1208.79 424.058,1208.7C424.191,1208.61 424.29,1208.54 424.356,1208.47C424.423,1208.4 424.511,1208.3 424.621,1208.17C424.732,1208.04 424.92,1207.8 425.185,1207.44C425.273,1207.27 425.34,1207.09 425.384,1206.91C425.428,1206.74 425.494,1206.54 425.583,1206.32C425.583,1206.09 425.594,1205.89 425.616,1205.72C425.638,1205.54 425.649,1205.34 425.649,1205.12L425.251,1203.93C425.119,1203.75 424.975,1203.58 424.82,1203.4C424.666,1203.22 424.522,1203.04 424.389,1202.87C423.284,1202.16 422.18,1201.65 421.075,1201.34C419.97,1201.03 418.898,1200.71 417.859,1200.38C416.82,1200.05 415.804,1199.62 414.809,1199.09C413.815,1198.56 412.876,1197.7 411.992,1196.5C411.152,1195.44 410.699,1194.22 410.633,1192.82C410.566,1191.43 410.787,1190.09 411.296,1188.81C411.804,1187.53 412.555,1186.39 413.55,1185.4C414.544,1184.4 415.682,1183.77 416.964,1183.51C418.82,1183.07 420.71,1183.02 422.633,1183.38C424.555,1183.73 426.356,1184.35 428.036,1185.23C428.831,1185.81 429.296,1186.46 429.428,1187.19C429.561,1187.92 429.461,1188.55 429.13,1189.08C428.798,1189.61 428.29,1189.98 427.605,1190.2C426.92,1190.43 426.135,1190.32 425.251,1189.87C424.191,1189.3 423.075,1188.92 421.903,1188.75C420.732,1188.57 419.55,1188.57 418.356,1188.75C418.224,1188.83 418.08,1188.9 417.925,1188.94C417.771,1188.99 417.627,1189.06 417.494,1189.14C417.008,1189.67 416.655,1190.19 416.434,1190.7C416.213,1191.21 416.124,1191.84 416.168,1192.59C416.213,1192.77 416.323,1193.03 416.5,1193.39C416.633,1193.56 416.765,1193.72 416.898,1193.85C417.03,1193.98 417.163,1194.14 417.296,1194.32C418.356,1194.89 419.517,1195.34 420.776,1195.67C422.036,1196.01 423.262,1196.38 424.456,1196.8C425.649,1197.22 426.754,1197.77 427.771,1198.46C428.787,1199.14 429.583,1200.15 430.157,1201.48C431.218,1204 431.384,1206.32 430.655,1208.44C429.925,1210.56 428.456,1212.35 426.246,1213.81C425.671,1214.16 425.03,1214.46 424.323,1214.7C423.616,1214.94 422.953,1215.07 422.334,1215.07C419.947,1215.07 417.605,1214.53 415.307,1213.44C413.008,1212.36 411.152,1210.85 409.738,1208.9Z" style="fill:white;fill-opacity:0.704373;fill-rule:nonzero;"/>
            </g>
            <g transform="matrix(0.84,0,0,0.8,43.9925,242.748)">
                <path d="M476.301,1195.11C476.301,1194.98 476.323,1194.89 476.367,1194.85C476.323,1194.71 476.301,1194.54 476.301,1194.32L476.301,1193.59C475.771,1192.22 474.931,1191.22 473.782,1190.6C472.633,1189.98 471.373,1189.65 470.003,1189.61C469.03,1189.92 468.102,1190.38 467.218,1191L465.826,1192.79C465.693,1192.97 465.561,1193.11 465.428,1193.22C465.296,1193.33 465.163,1193.43 465.03,1193.52L465.03,1211.75C464.986,1212.77 464.688,1213.53 464.135,1214.04C463.583,1214.55 462.975,1214.8 462.312,1214.8C461.693,1214.8 461.119,1214.57 460.588,1214.11C460.058,1213.64 459.726,1212.92 459.594,1211.95L459.594,1186.29C459.815,1185.41 460.168,1184.76 460.655,1184.34C461.141,1183.92 461.693,1183.71 462.312,1183.71C462.842,1183.71 463.362,1183.89 463.87,1184.27C464.378,1184.65 464.743,1185.23 464.964,1186.03C465.671,1185.54 466.522,1185.09 467.517,1184.67C468.511,1184.25 469.561,1184.04 470.666,1184.04C472.257,1184.04 473.881,1184.45 475.539,1185.27C477.196,1186.08 478.533,1187.11 479.55,1188.35C480.036,1187.86 480.555,1187.37 481.108,1186.86C481.66,1186.35 482.246,1185.88 482.865,1185.46C483.483,1185.04 484.124,1184.69 484.787,1184.4C485.45,1184.12 486.113,1183.97 486.776,1183.97C488.146,1183.97 489.494,1184.2 490.82,1184.67C492.146,1185.13 493.329,1185.77 494.367,1186.59C495.406,1187.41 496.246,1188.36 496.887,1189.44C497.528,1190.53 497.848,1191.66 497.848,1192.86C497.848,1192.94 497.837,1193.01 497.815,1193.06C497.793,1193.1 497.782,1193.17 497.782,1193.25C497.826,1193.3 497.848,1193.34 497.848,1193.39C497.848,1193.43 497.87,1193.48 497.914,1193.52L497.914,1211.49C497.87,1212.5 497.572,1213.27 497.019,1213.77C496.467,1214.28 495.859,1214.54 495.196,1214.54C494.577,1214.54 494.003,1214.3 493.472,1213.84C492.942,1213.38 492.61,1212.66 492.478,1211.68L492.478,1193.52C491.992,1191.97 491.24,1190.92 490.224,1190.37C489.207,1189.82 488.191,1189.54 487.174,1189.54C486.025,1189.54 484.986,1189.83 484.058,1190.4C483.13,1190.98 482.356,1192.04 481.738,1193.59L481.738,1211.42C481.693,1212.44 481.395,1213.2 480.842,1213.71C480.29,1214.22 479.682,1214.47 479.019,1214.47C478.4,1214.47 477.826,1214.24 477.296,1213.77C476.765,1213.31 476.434,1212.59 476.301,1211.62L476.301,1195.11Z" style="fill:white;fill-opacity:0.704373;fill-rule:nonzero;"/>
            </g>
            <g transform="matrix(0.84,0,0,0.8,43.9925,242.748)">
                <path d="M503.417,1197.5C503.903,1196.08 504.5,1194.7 505.207,1193.35C505.914,1192.01 506.754,1190.78 507.726,1189.67C508.699,1188.57 509.815,1187.62 511.075,1186.82C512.334,1186.03 513.738,1185.45 515.284,1185.1C517.848,1184.53 520.091,1184.72 522.014,1185.7C523.936,1186.67 525.472,1188.06 526.621,1189.87C527.771,1191.68 528.533,1193.75 528.909,1196.07C529.284,1198.39 529.185,1200.61 528.61,1202.74C527.947,1205.34 526.776,1207.77 525.097,1210.03C523.417,1212.28 521.296,1213.92 518.732,1214.93C516.831,1215.68 515.008,1215.96 513.262,1215.76C511.517,1215.56 509.947,1215 508.555,1214.07C507.163,1213.14 505.981,1211.93 505.008,1210.43C504.036,1208.92 503.373,1207.22 503.019,1205.32C502.798,1204.13 502.721,1202.96 502.787,1201.81C502.854,1200.66 502.997,1199.51 503.218,1198.36L503.417,1197.5ZM508.588,1199.02C508.412,1199.95 508.29,1200.8 508.224,1201.58C508.157,1202.35 508.191,1203.22 508.323,1204.19C508.456,1205.39 508.831,1206.46 509.45,1207.41C510.069,1208.36 510.82,1209.09 511.704,1209.6C512.588,1210.11 513.572,1210.35 514.655,1210.33C515.738,1210.3 516.831,1209.96 517.936,1209.3C519.395,1208.41 520.555,1207.27 521.417,1205.85C522.279,1204.44 522.931,1202.91 523.373,1201.28C523.726,1199.95 523.804,1198.54 523.605,1197.03C523.406,1195.53 522.953,1194.2 522.246,1193.06C521.539,1191.91 520.588,1191.08 519.395,1190.57C518.202,1190.06 516.787,1190.14 515.152,1190.8C513.384,1191.55 511.992,1192.68 510.975,1194.18C509.959,1195.68 509.163,1197.3 508.588,1199.02Z" style="fill:white;fill-opacity:0.704373;fill-rule:nonzero;"/>
            </g>
            <g transform="matrix(0.84,0,0,0.8,43.9925,242.748)">
                <path d="M535.903,1190.67C535.24,1190.32 534.754,1189.89 534.445,1189.41C534.135,1188.92 533.981,1188.44 533.981,1187.95C533.981,1187.29 534.224,1186.7 534.71,1186.19C535.196,1185.68 535.859,1185.43 536.699,1185.43C537.318,1185.43 538.091,1185.65 539.019,1186.09C539.947,1186.54 540.677,1187.02 541.207,1187.55C542.577,1186.4 543.992,1185.45 545.45,1184.7C546.909,1183.95 548.389,1183.58 549.892,1183.58C550.334,1183.58 550.975,1183.68 551.815,1183.91C552.655,1184.13 553.483,1184.46 554.301,1184.9C555.119,1185.34 555.837,1185.92 556.456,1186.62C557.075,1187.33 557.384,1188.15 557.384,1189.08C557.384,1189.83 557.141,1190.44 556.655,1190.9C556.168,1191.37 555.572,1191.6 554.865,1191.6C554.378,1191.6 553.947,1191.45 553.572,1191.17C553.196,1190.88 552.82,1190.57 552.445,1190.24C552.069,1189.91 551.671,1189.61 551.251,1189.34C550.831,1189.08 550.356,1188.94 549.826,1188.94C549.207,1188.94 548.533,1189.13 547.804,1189.51C547.075,1189.88 546.345,1190.34 545.616,1190.87C544.887,1191.4 544.191,1191.97 543.528,1192.59C542.865,1193.21 542.29,1193.76 541.804,1194.25L541.804,1211.88C541.76,1212.9 541.461,1213.66 540.909,1214.17C540.356,1214.68 539.749,1214.93 539.086,1214.93C538.467,1214.93 537.892,1214.7 537.362,1214.24C536.831,1213.77 536.5,1213.06 536.367,1212.08L536.367,1193.98C536.367,1193.89 536.356,1193.8 536.334,1193.68C536.312,1193.58 536.301,1193.48 536.301,1193.39C536.301,1193.3 536.312,1193.2 536.334,1193.09C536.356,1192.98 536.367,1192.88 536.367,1192.79L536.367,1190.87C536.191,1190.78 536.036,1190.71 535.903,1190.67Z" style="fill:white;fill-opacity:0.704373;fill-rule:nonzero;"/>
            </g>
            <g transform="matrix(0.84,0,0,0.8,43.9925,242.748)">
                <path d="M581.914,1205.98C582.842,1205.63 583.638,1205.59 584.301,1205.85C584.964,1206.12 585.439,1206.54 585.726,1207.11C586.014,1207.68 586.058,1208.33 585.859,1209.03C585.66,1209.74 585.141,1210.34 584.301,1210.82C582.842,1211.66 581.273,1212.44 579.594,1213.14C577.914,1213.85 576.213,1214.34 574.489,1214.6C572.765,1214.87 571.063,1214.86 569.384,1214.57C567.704,1214.28 566.091,1213.61 564.544,1212.55C562.688,1211.27 561.273,1209.53 560.301,1207.34C559.329,1205.15 558.82,1202.88 558.776,1200.51C558.732,1198.15 559.163,1195.87 560.069,1193.68C560.975,1191.5 562.4,1189.74 564.345,1188.41C566.378,1187.04 568.588,1186.02 570.975,1185.33C573.362,1184.65 575.771,1184.57 578.202,1185.1C579.395,1185.37 580.478,1185.93 581.45,1186.79C582.423,1187.65 583.207,1188.65 583.804,1189.77C584.4,1190.9 584.721,1192.09 584.765,1193.35C584.809,1194.61 584.5,1195.8 583.837,1196.9C583.086,1198.14 582.003,1199.19 580.588,1200.05C579.174,1200.91 577.638,1201.64 575.981,1202.24C574.323,1202.83 572.666,1203.33 571.008,1203.73C569.351,1204.13 567.903,1204.5 566.666,1204.86C566.135,1204.99 565.627,1205.01 565.141,1204.92C565.804,1206.34 566.787,1207.5 568.091,1208.4C569.395,1209.31 571.019,1209.7 572.964,1209.56C574.511,1209.48 576.069,1209.04 577.638,1208.27C579.207,1207.5 580.633,1206.74 581.914,1205.98ZM568.986,1191.86C567.351,1192.7 566.135,1193.88 565.34,1195.41C564.544,1196.93 564.146,1198.54 564.146,1200.22C564.456,1200 564.787,1199.82 565.141,1199.68C565.936,1199.46 566.743,1199.23 567.561,1198.99C568.378,1198.75 569.207,1198.51 570.047,1198.29C570.577,1198.16 571.296,1197.96 572.202,1197.7C573.108,1197.43 574.047,1197.12 575.019,1196.77C575.992,1196.41 576.876,1196.01 577.671,1195.54C578.467,1195.08 578.997,1194.56 579.262,1193.98C579.351,1192.53 578.997,1191.53 578.202,1191C577.406,1190.47 576.456,1190.2 575.351,1190.2C574.246,1190.2 573.097,1190.39 571.903,1190.77C570.71,1191.14 569.738,1191.51 568.986,1191.86Z" style="fill:white;fill-opacity:0.704373;fill-rule:nonzero;"/>
            </g>
            <g transform="matrix(0.84,0,0,0.8,43.9925,242.748)">
                <path d="M614.467,1186.96C614.688,1186.07 615.041,1185.41 615.528,1184.97C616.014,1184.53 616.566,1184.3 617.185,1184.3C617.76,1184.3 618.301,1184.5 618.809,1184.9C619.318,1185.3 619.682,1185.92 619.903,1186.76L619.903,1187.35C620.92,1186.47 622.08,1185.82 623.384,1185.4C624.688,1184.98 625.959,1184.77 627.196,1184.77C628.92,1184.77 630.522,1185.14 632.003,1185.89C633.483,1186.65 634.776,1187.66 635.881,1188.94C636.986,1190.23 637.848,1191.72 638.467,1193.42C639.086,1195.12 639.395,1196.94 639.395,1198.89C639.395,1201.01 639.052,1202.96 638.367,1204.72C637.682,1206.49 636.677,1208.02 635.351,1209.3C634.025,1210.58 632.378,1211.59 630.412,1212.32C628.445,1213.04 626.157,1213.41 623.55,1213.41C622.931,1213.41 622.323,1213.39 621.726,1213.34C621.13,1213.3 620.522,1213.23 619.903,1213.14L619.903,1227.13C619.859,1228.15 619.561,1228.91 619.008,1229.42C618.456,1229.93 617.848,1230.18 617.185,1230.18C616.566,1230.18 615.992,1229.95 615.461,1229.49C614.931,1229.02 614.599,1228.3 614.467,1227.33L614.467,1186.96ZM620.566,1194.45C620.478,1194.58 620.367,1194.7 620.235,1194.81C620.102,1194.92 619.992,1195.02 619.903,1195.11L619.903,1207.64C620.522,1207.77 621.13,1207.88 621.726,1207.97C622.323,1208.06 622.931,1208.11 623.55,1208.11C625.052,1208.11 626.445,1207.91 627.726,1207.51C629.008,1207.11 630.124,1206.54 631.075,1205.79C632.025,1205.03 632.765,1204.11 633.296,1203C633.826,1201.89 634.091,1200.64 634.091,1199.22C634.091,1198.16 633.925,1197.09 633.594,1196.01C633.262,1194.92 632.798,1193.94 632.202,1193.06C631.605,1192.17 630.909,1191.45 630.113,1190.9C629.318,1190.35 628.434,1190.07 627.461,1190.07C626.71,1190.07 626.003,1190.2 625.34,1190.47C624.677,1190.74 624.058,1191.08 623.483,1191.5C622.909,1191.92 622.378,1192.38 621.892,1192.89C621.406,1193.4 620.964,1193.92 620.566,1194.45Z" style="fill:white;fill-opacity:0.704373;fill-rule:nonzero;"/>
            </g>
            <g transform="matrix(0.84,0,0,0.8,43.9925,242.748)">
                <path d="M671.749,1209.17C672.235,1209.79 672.478,1210.47 672.478,1211.22C672.478,1211.97 672.235,1212.58 671.749,1213.04C671.262,1213.51 670.666,1213.74 669.959,1213.74C668.986,1213.74 668.146,1213.29 667.439,1212.38C666.732,1211.48 666.135,1210.45 665.649,1209.3C664.5,1210.54 663.152,1211.59 661.605,1212.45C660.058,1213.31 658.467,1213.74 656.831,1213.74C655.638,1213.74 654.489,1213.53 653.384,1213.11C652.279,1212.69 651.251,1212.12 650.301,1211.39C649.351,1210.66 648.511,1209.81 647.782,1208.83C647.052,1207.86 646.511,1206.85 646.157,1205.79C645.804,1204.64 645.561,1203.37 645.428,1201.97C645.296,1200.58 645.229,1199.13 645.229,1197.63C645.229,1195.82 645.273,1194.05 645.362,1192.33C645.45,1190.6 645.494,1189.08 645.494,1187.75C645.715,1186.87 646.069,1186.2 646.555,1185.76C647.041,1185.32 647.594,1185.1 648.213,1185.1C648.787,1185.1 649.329,1185.3 649.837,1185.7C650.345,1186.09 650.71,1186.71 650.931,1187.55C650.931,1189.63 650.898,1191.63 650.831,1193.55C650.765,1195.48 650.732,1197.52 650.732,1199.68C650.732,1202.16 651.262,1204.19 652.323,1205.79C653.384,1207.38 654.82,1208.17 656.633,1208.17C657.296,1208.17 657.959,1208.04 658.621,1207.77C659.284,1207.51 659.903,1207.15 660.478,1206.71C661.052,1206.27 661.583,1205.76 662.069,1205.19C662.555,1204.61 662.997,1204.04 663.395,1203.46C663.483,1203.38 663.594,1203.3 663.726,1203.23C663.859,1203.17 663.97,1203.09 664.058,1203C663.793,1200.79 663.66,1198.56 663.66,1196.3C663.66,1195.02 663.671,1193.73 663.693,1192.43C663.715,1191.12 663.826,1189.93 664.025,1188.85C664.224,1187.76 664.555,1186.88 665.019,1186.19C665.483,1185.51 666.135,1185.17 666.975,1185.17C667.638,1185.17 668.235,1185.42 668.765,1185.93C669.296,1186.44 669.561,1187.18 669.561,1188.15C669.561,1189.17 669.483,1190.4 669.329,1191.86C669.174,1193.32 669.097,1194.85 669.097,1196.44C669.097,1197.67 669.141,1198.91 669.229,1200.15C669.318,1201.39 669.461,1202.57 669.66,1203.7C669.859,1204.82 670.124,1205.85 670.456,1206.78C670.787,1207.71 671.218,1208.5 671.749,1209.17Z" style="fill:white;fill-opacity:0.704373;fill-rule:nonzero;"/>
            </g>
            <g transform="matrix(0.84,0,0,0.8,43.9925,242.748)">
                <path d="M679.638,1190.67C678.975,1190.32 678.489,1189.89 678.18,1189.41C677.87,1188.92 677.715,1188.44 677.715,1187.95C677.715,1187.29 677.959,1186.7 678.445,1186.19C678.931,1185.68 679.594,1185.43 680.434,1185.43C681.052,1185.43 681.826,1185.65 682.754,1186.09C683.682,1186.54 684.412,1187.02 684.942,1187.55C686.312,1186.4 687.726,1185.45 689.185,1184.7C690.644,1183.95 692.124,1183.58 693.627,1183.58C694.069,1183.58 694.71,1183.68 695.55,1183.91C696.389,1184.13 697.218,1184.46 698.036,1184.9C698.854,1185.34 699.572,1185.92 700.191,1186.62C700.809,1187.33 701.119,1188.15 701.119,1189.08C701.119,1189.83 700.876,1190.44 700.389,1190.9C699.903,1191.37 699.307,1191.6 698.599,1191.6C698.113,1191.6 697.682,1191.45 697.307,1191.17C696.931,1190.88 696.555,1190.57 696.18,1190.24C695.804,1189.91 695.406,1189.61 694.986,1189.34C694.566,1189.08 694.091,1188.94 693.561,1188.94C692.942,1188.94 692.268,1189.13 691.539,1189.51C690.809,1189.88 690.08,1190.34 689.351,1190.87C688.621,1191.4 687.925,1191.97 687.262,1192.59C686.599,1193.21 686.025,1193.76 685.539,1194.25L685.539,1211.88C685.494,1212.9 685.196,1213.66 684.644,1214.17C684.091,1214.68 683.483,1214.93 682.82,1214.93C682.202,1214.93 681.627,1214.7 681.097,1214.24C680.566,1213.77 680.235,1213.06 680.102,1212.08L680.102,1193.98C680.102,1193.89 680.091,1193.8 680.069,1193.68C680.047,1193.58 680.036,1193.48 680.036,1193.39C680.036,1193.3 680.047,1193.2 680.069,1193.09C680.091,1192.98 680.102,1192.88 680.102,1192.79L680.102,1190.87C679.925,1190.78 679.771,1190.71 679.638,1190.67Z" style="fill:white;fill-opacity:0.704373;fill-rule:nonzero;"/>
            </g>
            <g transform="matrix(0.84,0,0,0.8,43.9925,242.748)">
                <path d="M706.688,1186.96C706.909,1186.07 707.262,1185.41 707.749,1184.97C708.235,1184.53 708.787,1184.3 709.406,1184.3C709.981,1184.3 710.522,1184.5 711.03,1184.9C711.539,1185.3 711.903,1185.92 712.124,1186.76L712.124,1187.35C713.141,1186.47 714.301,1185.82 715.605,1185.4C716.909,1184.98 718.18,1184.77 719.417,1184.77C721.141,1184.77 722.743,1185.14 724.224,1185.89C725.704,1186.65 726.997,1187.66 728.102,1188.94C729.207,1190.23 730.069,1191.72 730.688,1193.42C731.307,1195.12 731.616,1196.94 731.616,1198.89C731.616,1201.01 731.273,1202.96 730.588,1204.72C729.903,1206.49 728.898,1208.02 727.572,1209.3C726.246,1210.58 724.599,1211.59 722.633,1212.32C720.666,1213.04 718.378,1213.41 715.771,1213.41C715.152,1213.41 714.544,1213.39 713.947,1213.34C713.351,1213.3 712.743,1213.23 712.124,1213.14L712.124,1227.13C712.08,1228.15 711.782,1228.91 711.229,1229.42C710.677,1229.93 710.069,1230.18 709.406,1230.18C708.787,1230.18 708.213,1229.95 707.682,1229.49C707.152,1229.02 706.82,1228.3 706.688,1227.33L706.688,1186.96ZM712.787,1194.45C712.699,1194.58 712.588,1194.7 712.456,1194.81C712.323,1194.92 712.213,1195.02 712.124,1195.11L712.124,1207.64C712.743,1207.77 713.351,1207.88 713.947,1207.97C714.544,1208.06 715.152,1208.11 715.771,1208.11C717.273,1208.11 718.666,1207.91 719.947,1207.51C721.229,1207.11 722.345,1206.54 723.296,1205.79C724.246,1205.03 724.986,1204.11 725.517,1203C726.047,1201.89 726.312,1200.64 726.312,1199.22C726.312,1198.16 726.146,1197.09 725.815,1196.01C725.483,1194.92 725.019,1193.94 724.423,1193.06C723.826,1192.17 723.13,1191.45 722.334,1190.9C721.539,1190.35 720.655,1190.07 719.682,1190.07C718.931,1190.07 718.224,1190.2 717.561,1190.47C716.898,1190.74 716.279,1191.08 715.704,1191.5C715.13,1191.92 714.599,1192.38 714.113,1192.89C713.627,1193.4 713.185,1193.92 712.787,1194.45Z" style="fill:white;fill-opacity:0.704373;fill-rule:nonzero;"/>
            </g>
            <g transform="matrix(0.84,0,0,0.8,43.9925,242.748)">
                <path d="M745.472,1210.56C746.268,1211.13 746.732,1211.79 746.865,1212.51C746.997,1213.24 746.898,1213.87 746.566,1214.4C746.235,1214.93 745.726,1215.31 745.041,1215.53C744.356,1215.75 743.572,1215.64 742.688,1215.2C742.29,1214.93 741.892,1214.67 741.494,1214.4C741.097,1214.14 740.677,1213.87 740.235,1213.61C739.837,1213.25 739.572,1212.92 739.439,1212.61C739.307,1212.3 739.196,1211.86 739.108,1211.29L739.108,1174.49C739.284,1173.65 739.627,1173.01 740.135,1172.57C740.644,1172.13 741.174,1171.89 741.726,1171.87C742.279,1171.85 742.82,1172.04 743.351,1172.44C743.881,1172.83 744.279,1173.45 744.544,1174.29L744.544,1209.96C744.677,1210.05 744.82,1210.15 744.975,1210.26C745.13,1210.37 745.296,1210.47 745.472,1210.56Z" style="fill:white;fill-opacity:0.704373;fill-rule:nonzero;"/>
            </g>
            <g transform="matrix(0.84,0,0,0.8,43.9925,242.748)">
                <path d="M775.041,1205.98C775.97,1205.63 776.765,1205.59 777.428,1205.85C778.091,1206.12 778.566,1206.54 778.854,1207.11C779.141,1207.68 779.185,1208.33 778.986,1209.03C778.787,1209.74 778.268,1210.34 777.428,1210.82C775.97,1211.66 774.4,1212.44 772.721,1213.14C771.041,1213.85 769.34,1214.34 767.616,1214.6C765.892,1214.87 764.191,1214.86 762.511,1214.57C760.831,1214.28 759.218,1213.61 757.671,1212.55C755.815,1211.27 754.4,1209.53 753.428,1207.34C752.456,1205.15 751.947,1202.88 751.903,1200.51C751.859,1198.15 752.29,1195.87 753.196,1193.68C754.102,1191.5 755.528,1189.74 757.472,1188.41C759.505,1187.04 761.715,1186.02 764.102,1185.33C766.489,1184.65 768.898,1184.57 771.329,1185.1C772.522,1185.37 773.605,1185.93 774.577,1186.79C775.55,1187.65 776.334,1188.65 776.931,1189.77C777.528,1190.9 777.848,1192.09 777.892,1193.35C777.936,1194.61 777.627,1195.8 776.964,1196.9C776.213,1198.14 775.13,1199.19 773.715,1200.05C772.301,1200.91 770.765,1201.64 769.108,1202.24C767.45,1202.83 765.793,1203.33 764.135,1203.73C762.478,1204.13 761.03,1204.5 759.793,1204.86C759.262,1204.99 758.754,1205.01 758.268,1204.92C758.931,1206.34 759.914,1207.5 761.218,1208.4C762.522,1209.31 764.146,1209.7 766.091,1209.56C767.638,1209.48 769.196,1209.04 770.765,1208.27C772.334,1207.5 773.76,1206.74 775.041,1205.98ZM762.113,1191.86C760.478,1192.7 759.262,1193.88 758.467,1195.41C757.671,1196.93 757.273,1198.54 757.273,1200.22C757.583,1200 757.914,1199.82 758.268,1199.68C759.063,1199.46 759.87,1199.23 760.688,1198.99C761.505,1198.75 762.334,1198.51 763.174,1198.29C763.704,1198.16 764.423,1197.96 765.329,1197.7C766.235,1197.43 767.174,1197.12 768.146,1196.77C769.119,1196.41 770.003,1196.01 770.798,1195.54C771.594,1195.08 772.124,1194.56 772.389,1193.98C772.478,1192.53 772.124,1191.53 771.329,1191C770.533,1190.47 769.583,1190.2 768.478,1190.2C767.373,1190.2 766.224,1190.39 765.03,1190.77C763.837,1191.14 762.865,1191.51 762.113,1191.86Z" style="fill:white;fill-opacity:0.704373;fill-rule:nonzero;"/>
            </g>
            <g transform="matrix(0.84,0,0,0.8,43.9925,242.748)">
                <path d="M795.461,1198.62C796.389,1198.89 797.041,1199.34 797.417,1199.98C797.793,1200.62 797.914,1201.25 797.782,1201.87C797.649,1202.49 797.284,1203.02 796.688,1203.46C796.091,1203.91 795.307,1204.06 794.334,1203.93C793.008,1203.66 791.903,1203.14 791.019,1202.37C790.135,1201.6 789.494,1200.7 789.097,1199.68C788.699,1198.67 788.588,1197.56 788.765,1196.37C788.942,1195.18 789.45,1194.03 790.29,1192.92C790.82,1192.22 791.539,1191.5 792.445,1190.77C793.351,1190.04 794.268,1189.31 795.196,1188.58C796.124,1187.85 796.986,1187.11 797.782,1186.36C798.577,1185.61 799.141,1184.82 799.472,1184.01C799.804,1183.19 799.826,1182.35 799.539,1181.49C799.251,1180.62 798.467,1179.73 797.185,1178.8C797.052,1178.76 796.92,1178.71 796.787,1178.67C796.655,1178.62 796.5,1178.58 796.323,1178.54C794.423,1178.62 792.677,1179.2 791.086,1180.26C789.494,1181.32 788.124,1182.6 786.975,1184.11C786.356,1184.86 785.682,1185.28 784.953,1185.37C784.224,1185.45 783.594,1185.31 783.063,1184.93C782.533,1184.56 782.191,1184.01 782.036,1183.28C781.881,1182.55 782.069,1181.76 782.599,1180.92C783.483,1179.77 784.533,1178.67 785.749,1177.61C786.964,1176.55 788.268,1175.66 789.66,1174.96C791.052,1174.25 792.478,1173.74 793.936,1173.43C795.395,1173.12 796.787,1173.11 798.113,1173.4C799.439,1173.68 800.666,1174.32 801.793,1175.29C802.92,1176.26 803.859,1177.67 804.61,1179.53C805.097,1180.72 805.296,1181.87 805.207,1182.98C805.119,1184.08 804.854,1185.14 804.412,1186.16C803.97,1187.18 803.373,1188.12 802.621,1188.98C801.87,1189.84 801.03,1190.65 800.102,1191.4C799.793,1191.66 799.251,1192.05 798.478,1192.56C797.704,1193.07 796.964,1193.64 796.257,1194.28C795.55,1194.92 794.986,1195.59 794.566,1196.27C794.146,1196.96 794.091,1197.63 794.4,1198.29C794.489,1198.38 794.555,1198.43 794.599,1198.43C794.732,1198.51 794.876,1198.56 795.03,1198.56C795.185,1198.56 795.329,1198.58 795.461,1198.62ZM789.892,1210.69C789.892,1209.67 790.246,1208.81 790.953,1208.11C791.66,1207.4 792.522,1207.04 793.539,1207.04C794.555,1207.04 795.428,1207.4 796.157,1208.11C796.887,1208.81 797.251,1209.67 797.251,1210.69C797.251,1211.71 796.887,1212.58 796.157,1213.31C795.428,1214.04 794.555,1214.4 793.539,1214.4C792.522,1214.4 791.66,1214.04 790.953,1213.31C790.246,1212.58 789.892,1211.71 789.892,1210.69Z" style="fill:white;fill-opacity:0.704373;fill-rule:nonzero;"/>
            </g>
        </g>
    </g>
</svg>
